<svg width="33" height="32" viewBox="0 0 33 32" fill="none" xmlns="http://www.w3.org/2000/svg">
<path d="M10.9021 26.6666C13.4468 27.9721 16.3742 28.3256 19.1566 27.6637C21.939 27.0017 24.3935 25.3678 26.0777 23.0562C27.762 20.7447 28.5653 17.9076 28.3428 15.0562C28.1204 12.2048 26.8868 9.52661 24.8645 7.50424C22.8421 5.48187 20.1639 4.24832 17.3125 4.02587C14.4611 3.80342 11.624 4.60671 9.31249 6.29098C7.00096 7.97524 5.36699 10.4297 4.70503 13.2121C4.04307 15.9945 4.39666 18.9219 5.70207 21.4666L3.0354 29.3333L10.9021 26.6666Z" stroke="white" stroke-opacity="0.79" stroke-width="2.66667" stroke-linecap="round" stroke-linejoin="round"/>
<path d="M21.4354 12.2666C20.8123 11.6558 19.9746 11.3137 19.1021 11.3137C18.2296 11.3137 17.3919 11.6558 16.7688 12.2666L16.3688 12.7999L15.9021 12.3999C15.5964 12.0691 15.2249 11.8059 14.8113 11.6273C14.3978 11.4487 13.9515 11.3587 13.5011 11.363C13.0507 11.3674 12.6061 11.4659 12.1961 11.6524C11.7861 11.8389 11.4197 12.1092 11.1204 12.4459C10.8212 12.7825 10.5957 13.1781 10.4586 13.6072C10.3215 14.0362 10.2757 14.4892 10.3242 14.937C10.3727 15.3848 10.5144 15.8175 10.7403 16.2073C10.9661 16.597 11.271 16.9351 11.6354 17.1999L16.4354 21.8666L21.2354 17.1999C22.8354 15.5999 22.7021 13.5999 21.5021 12.2666" stroke="white" stroke-opacity="0.79" stroke-width="2.66667" stroke-linecap="round" stroke-linejoin="round"/>
</svg>
