<svg width="548" height="548" viewBox="0 0 548 548" fill="none" xmlns="http://www.w3.org/2000/svg">
<rect width="548" height="548" rx="274" fill="black"/>
<g clip-path="url(#clip0_261_35)">
<path d="M186.509 294.531C181.998 294.531 179.762 291.464 179.762 285.292C179.762 282.945 180.292 279.954 181.354 276.357C182.415 272.76 183.666 269.012 185.182 265.112C186.699 261.212 188.329 257.237 190.11 253.224C191.892 249.172 193.598 245.576 195.228 242.433C196.858 239.29 198.185 236.64 199.208 234.482C200.232 232.362 200.838 231.226 200.99 231.075L210.922 233.952C208.875 237.927 207.093 241.486 205.615 244.629C204.136 247.771 202.544 251.368 200.762 255.306C198.981 259.281 197.389 263.219 195.91 267.081C194.432 270.981 193.219 274.691 192.271 278.212C191.323 281.733 190.831 284.611 190.831 286.807C190.831 288.283 191.551 289.003 193.029 289.003C195.834 289.003 198.753 287.716 201.862 285.141C204.932 282.566 208.268 279.424 211.793 275.676C215.319 271.927 219.034 267.8 222.938 263.333C226.843 258.865 231.088 254.738 235.751 250.99C240.414 247.241 245.341 244.099 250.649 241.524C255.956 238.95 261.68 237.662 267.858 237.662C278.018 237.662 288.215 238.382 298.526 239.858C308.836 241.335 319.147 242.925 329.534 244.591C339.92 246.295 350.231 247.847 360.542 249.324C370.853 250.8 381.05 251.52 391.209 251.52C395.606 251.52 400.231 251.179 405.007 250.535C409.784 249.892 414.408 248.718 418.919 247.014C423.392 245.31 427.6 243.115 431.505 240.388C435.409 237.662 438.669 234.255 441.323 230.128L443.104 231.226C440.754 235.353 437.57 238.988 433.627 242.13C429.647 245.273 425.288 247.923 420.511 250.081C415.735 252.201 410.807 253.829 405.728 254.927C400.648 256.025 395.758 256.593 391.057 256.593C381.05 256.593 370.853 255.987 360.504 254.738C350.117 253.489 339.769 252.126 329.382 250.649C318.996 249.172 308.609 247.809 298.146 246.56C287.684 245.31 277.335 244.705 267.024 244.705C260.391 244.705 254.326 245.916 248.829 248.339C243.294 250.763 238.253 253.867 233.59 257.578C228.928 261.288 224.644 265.339 220.664 269.58C216.684 273.858 212.817 277.834 209.064 281.582C205.311 285.33 201.634 288.397 198.033 290.82C194.356 293.319 190.527 294.531 186.509 294.531ZM218.617 215.173C218.617 216.952 217.972 218.391 216.759 219.565C215.508 220.738 214.068 221.344 212.438 221.344C210.656 221.344 209.216 220.776 208.041 219.565C206.865 218.391 206.259 216.914 206.259 215.173C206.259 213.545 206.828 212.144 208.041 210.856C209.216 209.607 210.694 209.001 212.438 209.001C214.068 209.001 215.47 209.645 216.759 210.856C217.972 212.144 218.617 213.545 218.617 215.173Z" fill="#F5D2D9"/>
<path d="M70.8545 317.133C70.8924 319.14 72.5603 320.768 74.5694 320.768H75.2897V321.336H62.5907V320.768H63.3109C65.3579 320.768 66.988 319.14 67.0259 317.133V282.262L60.8091 282.641C57.3216 282.83 55.123 283.928 54.9334 286.465C54.7439 288.813 56.1085 290.63 59.1411 290.743V291.084C55.5399 292.031 52.8106 289.608 52.9243 286.465C53.038 283.739 55.085 281.543 60.43 280.937C63.7279 280.597 69.7173 280.597 75.2518 279.536L75.3655 280.104C71.878 280.672 70.8166 282.452 70.7787 285.329L70.8545 317.133Z" fill="#A595E1"/>
<path d="M125.063 280.748V281.316H124.002C122.068 281.316 120.476 282.868 120.401 284.799V314.786C120.401 318.534 120.931 322.207 120.931 322.207H120.401L88.71 288.434V317.36C88.7858 319.291 90.34 320.844 92.3112 320.844H93.3726V321.412H81.356V320.844H82.4174C84.3885 320.844 85.9807 319.291 86.0186 317.323V287.147C86.0186 283.171 85.4879 279.877 85.4879 279.877H86.0565L117.709 313.65V284.837C117.671 282.906 116.079 281.316 114.108 281.316H113.047V280.748H125.063Z" fill="#A595E1"/>
<path d="M154.516 281.392V282.376V286.238H153.948V285.367C153.948 283.815 152.697 282.528 151.143 282.49H138.861V300.436H148.679C150.233 300.398 151.484 299.149 151.484 297.559V296.688H152.052V305.926H151.484V305.055C151.484 303.503 150.271 302.253 148.717 302.178H138.823V317.133C138.861 319.14 140.529 320.768 142.538 320.768H143.258V321.336H130.521V320.768H131.241C133.288 320.768 134.918 319.14 134.956 317.133V284.61C134.956 282.755 133.175 281.278 131.241 281.278H130.521V280.71H147.503C150.005 280.672 153.341 280.104 154.441 279.65L154.516 281.392Z" fill="#A595E1"/>
<path d="M189.505 311.984L186.132 321.374H162.022V320.806H162.743C164.79 320.806 166.42 319.178 166.458 317.171V284.989C166.42 282.982 164.752 281.354 162.743 281.354H162.022V280.786H174.759V281.354H174.039C171.992 281.354 170.362 282.982 170.324 284.989V319.632H178.664C184.843 319.632 187.193 316.452 188.975 312.022L189.505 311.984Z" fill="#A595E1"/>
<path d="M233.061 280.748V281.316H232.113C230.483 281.316 229.156 282.452 229.042 284.042V307.024C229.042 316.111 222.788 322.207 213.387 322.207C203.72 322.207 197.276 316.187 197.276 307.138V284.194C197.238 282.528 195.873 281.316 194.205 281.316H193.258V280.748H205.085V281.316H204.137C202.469 281.316 201.143 282.49 201.067 284.118V306.267C201.067 314.71 205.995 320.352 213.425 320.352C221.196 320.352 226.351 315.013 226.389 306.986V284.08C226.313 282.452 224.986 281.278 223.318 281.278H222.371V280.71L233.061 280.748Z" fill="#A595E1"/>
<path d="M266.95 311.984L263.576 321.374H239.467V320.806H240.188C242.235 320.806 243.865 319.178 243.902 317.171V284.648C243.902 282.793 242.121 281.316 240.188 281.316H239.467V280.749H256.45C258.952 280.711 262.288 280.143 263.387 279.688V281.392V282.377V286.996H262.818V285.973C262.818 284.118 261.378 282.642 259.558 282.528H247.693V300.474H257.511C259.065 300.437 260.316 299.187 260.316 297.597V296.726H260.885V305.927H260.316V305.056C260.316 303.503 259.103 302.254 257.549 302.178H247.655V319.595H255.995C262.174 319.595 264.524 316.414 266.306 311.984H266.95Z" fill="#A595E1"/>
<path d="M315.813 280.748V281.316H314.751C312.818 281.316 311.226 282.868 311.15 284.799V314.786C311.15 318.534 311.681 322.207 311.681 322.207H311.15L279.46 288.434V317.36C279.535 319.291 281.09 320.844 283.061 320.844H284.122V321.412H272.105V320.844H273.167C275.138 320.844 276.73 319.291 276.768 317.323V287.147C276.768 283.171 276.237 279.877 276.237 279.877H276.806L308.459 313.65V284.837C308.421 282.906 306.829 281.316 304.857 281.316H303.796V280.748H315.813Z" fill="#A595E1"/>
<path d="M358.535 304.449L357.814 313.574C354.744 318.534 349.551 322.207 341.476 322.207C329.308 322.131 320.703 313.839 320.703 301.004C320.703 288.396 329.005 279.915 341.818 279.915C347.504 279.915 352.166 281.581 355.578 283.853L356.753 292.069H356.26C354.479 285.291 348.792 281.695 341.818 281.695C331.583 281.695 325.1 289.418 325.1 300.966C325.1 312.628 331.734 320.238 341.514 320.465C349.778 320.427 356.753 316.338 358.08 304.449H358.535Z" fill="#A595E1"/>
<path d="M392.385 311.984L389.011 321.374H364.902V320.806H365.623C367.67 320.806 369.3 319.178 369.338 317.171V284.648C369.338 282.793 367.556 281.316 365.623 281.316H364.902V280.749H381.885C384.387 280.711 387.723 280.143 388.822 279.688V281.392V282.377V286.996H388.253V285.973C388.253 284.118 386.813 282.642 384.993 282.528H373.128V300.474H382.946C384.5 300.437 385.751 299.187 385.751 297.597V296.726H386.32V305.927H385.751V305.056C385.751 303.503 384.538 302.254 382.984 302.178H373.09V319.595H381.43C387.609 319.595 389.959 316.414 391.741 311.984H392.385Z" fill="#A595E1"/>
<path d="M438.177 321.374H425.44V320.806H426.161C428.17 320.806 429.838 319.178 429.876 317.171V302.14H406.07V317.171C406.108 319.178 407.776 320.806 409.785 320.806H410.505V321.374H397.768V320.806H398.488C400.535 320.806 402.165 319.216 402.203 317.171V284.951C402.165 282.944 400.497 281.316 398.488 281.316H397.768V280.748H410.505V281.316H409.785C407.776 281.316 406.108 282.944 406.07 284.913V300.399H429.876V284.875C429.8 282.869 428.17 281.278 426.161 281.278H425.44V280.71H438.177V281.278H437.457C435.41 281.278 433.78 282.906 433.742 284.913V317.133C433.78 319.14 435.448 320.768 437.457 320.768H438.177V321.374Z" fill="#A595E1"/>
<path d="M453.038 311.984L449.664 321.374H425.555V320.806H426.275C428.322 320.806 429.952 319.178 429.99 317.171V284.648C429.99 282.793 428.208 281.316 426.275 281.316H425.555V280.749H442.537C445.039 280.711 448.375 280.143 449.474 279.688V281.392V282.377V286.996H448.906V285.973C448.906 284.118 447.465 282.642 445.646 282.528H433.781V300.474H443.599C445.153 300.437 446.404 299.187 446.404 297.597V296.726H446.972V305.927H446.404V305.056C446.404 303.503 445.191 302.254 443.637 302.178H433.743V319.595H442.082C448.261 319.595 450.611 316.414 452.393 311.984H453.038Z" fill="#A595E1"/>
<path d="M474.19 280.748C481.241 280.748 485.562 284.913 485.562 291.652C485.562 297.256 481.278 302.708 475.668 302.708C476.919 303.276 478.701 305.207 479.838 306.797C479.838 306.797 484.842 313.953 487.116 316.414C489.466 318.951 491.589 320.768 495.039 320.806V321.374H491.855C486.434 321.374 483.553 318.458 481.695 316.3C481.051 315.505 474.493 306.002 474.038 305.434C472.522 303.541 470.816 301.534 468.693 301.534V301.004C468.693 301.004 470.02 301.042 471.764 300.966C474.796 300.891 479.194 300.171 480.824 294.946C481.089 294.151 481.241 292.75 481.203 291.463C481.051 286.2 478.322 282.831 474 282.603C471.043 282.452 467.518 282.603 466.76 282.566V317.171C466.798 319.178 468.466 320.806 470.475 320.806H471.195V321.374H458.496V320.806H459.216C461.225 320.806 462.893 319.178 462.931 317.171V284.951C462.893 282.944 461.225 281.316 459.216 281.316H458.496V280.748H474.19Z" fill="#A595E1"/>
</g>
<defs>
<clipPath id="clip0_261_35">
<rect width="442" height="129" fill="white" transform="translate(53 209)"/>
</clipPath>
</defs>
</svg>
