<svg width="548" height="548" viewBox="0 0 548 548" fill="none" xmlns="http://www.w3.org/2000/svg">
<rect width="548" height="548" rx="274" fill="black"/>
<g clip-path="url(#clip0_261_35)">
<path d="M186.904 265.487C182.414 265.487 180.188 262.421 180.188 256.253C180.188 253.907 180.716 250.917 181.772 247.322C182.829 243.727 184.074 239.981 185.584 236.083C187.093 232.186 188.716 228.212 190.489 224.201C192.263 220.152 193.961 216.557 195.584 213.416C197.206 210.275 198.527 207.626 199.546 205.469C200.565 203.35 201.169 202.215 201.32 202.063L211.206 204.939C209.169 208.913 207.395 212.47 205.923 215.611C204.452 218.752 202.867 222.347 201.093 226.282C199.32 230.256 197.735 234.191 196.263 238.051C194.791 241.949 193.584 245.657 192.64 249.177C191.697 252.696 191.206 255.572 191.206 257.767C191.206 259.243 191.923 259.962 193.395 259.962C196.187 259.962 199.093 258.675 202.188 256.102C205.244 253.529 208.565 250.388 212.074 246.641C215.584 242.895 219.282 238.77 223.169 234.305C227.055 229.839 231.282 225.715 235.923 221.968C240.565 218.222 245.471 215.081 250.754 212.508C256.037 209.934 261.735 208.648 267.886 208.648C277.999 208.648 288.15 209.367 298.414 210.843C308.678 212.318 318.942 213.908 329.282 215.573C339.621 217.276 349.886 218.827 360.15 220.303C370.414 221.779 380.565 222.498 390.678 222.498C395.055 222.498 399.659 222.157 404.414 221.514C409.169 220.871 413.772 219.698 418.263 217.995C422.716 216.292 426.904 214.097 430.791 211.372C434.678 208.648 437.923 205.242 440.565 201.117L442.338 202.215C439.999 206.339 436.829 209.972 432.904 213.113C428.942 216.254 424.603 218.903 419.848 221.06C415.093 223.179 410.187 224.806 405.131 225.904C400.074 227.001 395.206 227.569 390.527 227.569C380.565 227.569 370.414 226.963 360.112 225.715C349.772 224.466 339.471 223.103 329.131 221.628C318.791 220.152 308.452 218.789 298.037 217.541C287.621 216.292 277.32 215.686 267.055 215.686C260.452 215.686 254.414 216.897 248.942 219.319C243.433 221.741 238.414 224.844 233.772 228.553C229.131 232.261 224.867 236.31 220.904 240.549C216.942 244.825 213.093 248.798 209.357 252.545C205.621 256.291 201.961 259.356 198.376 261.778C194.716 264.276 190.904 265.487 186.904 265.487ZM218.867 186.169C218.867 187.948 218.225 189.386 217.018 190.559C215.772 191.732 214.338 192.338 212.716 192.338C210.942 192.338 209.508 191.77 208.338 190.559C207.169 189.386 206.565 187.91 206.565 186.169C206.565 184.542 207.131 183.142 208.338 181.855C209.508 180.607 210.98 180.001 212.716 180.001C214.338 180.001 215.735 180.645 217.018 181.855C218.225 183.142 218.867 184.542 218.867 186.169Z" fill="#C7B199"/>
<path d="M122.112 333.034C122.112 333.261 122.15 333.375 122.301 333.375C122.339 333.375 122.414 333.375 122.527 333.299C129.358 324.558 132.867 315.665 137.093 315.665C137.622 315.665 138.15 315.778 138.678 316.043C139.433 316.649 139.735 317.33 139.735 318.2C139.735 319.903 138.641 322.249 137.358 326.223C136.603 327.736 135.471 329.818 135.471 330.158L135.509 330.196C136.037 330.196 140.452 324.33 143.131 324.33H143.358C146.641 325.579 144.716 332.088 148.414 332.088C148.641 332.088 148.792 332.088 149.056 332.05C151.207 331.71 157.018 327.434 160.263 323.12C160.49 322.779 160.792 322.628 161.131 322.628C161.773 322.628 162.49 323.195 162.49 323.687C162.49 323.801 162.452 323.914 162.414 323.99C157.999 328.72 151.584 332.353 149.131 332.769C148.829 332.807 148.565 332.845 148.301 332.845C143.999 332.845 144.226 326.374 142.943 326.374C142.867 326.374 142.829 326.412 142.716 326.45C139.697 328.039 136.301 334.094 134.452 334.321C134.188 334.359 133.886 334.359 133.622 334.359C132.452 334.359 131.32 333.98 131.32 332.656C131.32 332.391 131.358 332.126 131.433 331.823C131.433 331.785 136.792 320.584 136.792 317.443C136.792 317.103 136.754 316.876 136.603 316.762H136.414C133.395 316.762 125.735 334.737 121.169 336.856C119.659 336.818 118.641 336.629 118.641 334.472C118.641 333.64 118.754 332.58 119.131 331.104C120.716 324.671 123.169 317.557 123.773 316.308C123.886 315.475 125.131 315.059 126.188 315.059C127.131 315.059 127.999 315.362 127.999 316.005C127.999 316.081 127.961 316.194 127.961 316.27C127.961 316.308 122.112 330.612 122.112 333.034Z" fill="#C7B199"/>
<path d="M167.735 325.239C164.301 328.493 160.414 332.126 158.565 332.126C158.528 332.126 158.452 332.088 158.339 332.088C157.848 332.013 157.509 331.748 157.207 331.407C156.867 330.991 156.716 330.461 156.716 329.856C156.716 329.629 156.716 329.439 156.754 329.212C156.83 328.531 157.094 327.661 157.546 326.79C158.792 324.028 161.471 320.773 164.83 319.752C165.697 319.487 166.49 319.411 167.169 319.411C168.528 319.411 169.509 319.827 170.15 320.509C171.433 319.411 172.98 318.352 173.773 318.352C173.886 318.352 174.037 318.389 174.113 318.427C174.679 318.503 174.98 319.071 174.98 320.017C174.98 321.076 174.641 322.552 173.886 324.406C173.396 325.693 173.207 326.79 173.207 327.661C173.207 329.931 174.641 330.726 176.754 330.726C182.263 330.726 192.452 324.898 193.999 323.006C194.263 322.476 194.565 322.325 194.83 322.325C195.207 322.325 195.471 322.666 195.471 323.158C195.471 323.422 195.396 323.687 195.169 323.952C194.641 324.709 183.056 331.521 176.301 331.521C173.546 331.521 171.584 330.348 171.584 327.093C171.584 326.223 171.697 325.239 171.999 324.028C172.263 322.363 172.83 320.849 172.83 320.509V320.471C172.83 320.471 172.188 321.076 171.169 322.022C171.358 322.552 171.358 323.082 171.358 323.309V323.498C170.98 324.066 170.452 324.331 169.962 324.331C169.773 324.331 169.622 324.293 169.433 324.217L169.32 323.839C168.716 324.293 168.452 324.52 167.735 325.239ZM166.98 322.363C164.905 322.363 161.282 327.093 161.282 328.077C161.282 328.191 161.358 328.304 161.546 328.304C162.377 328.304 164.98 326.223 167.697 322.59C167.471 322.401 167.245 322.363 166.98 322.363Z" fill="#C7B199"/>
<path d="M195.736 328.266C198.151 325.088 200.641 322.363 202.528 322.363C203.396 322.363 204.113 322.893 204.679 324.104C206.566 328.493 208.868 330.196 211.509 330.196C214.943 330.196 218.981 327.282 223.622 323.914C223.811 323.687 224 323.65 224.188 323.65C224.604 323.65 225.019 324.066 225.019 324.482C225.019 324.709 224.905 324.898 224.641 325.05C221.17 327.774 216 331.71 211.245 331.71C208.302 331.71 205.547 330.196 203.547 325.769C203.434 325.39 203.207 325.201 202.943 325.201C200.717 325.201 194.377 334.132 194.302 335.04C194.037 335.608 193.207 335.91 192.528 335.91C191.924 335.91 191.396 335.646 191.396 335.078V334.889L195.585 318.049C195.811 317.179 196.453 316.8 197.094 316.8C197.887 316.8 198.641 317.368 198.641 318.352V318.427L195.736 328.266Z" fill="#C7B199"/>
<path d="M230.868 325.239C227.434 328.493 223.547 332.126 221.698 332.126C221.66 332.126 221.584 332.088 221.471 332.088C220.981 332.013 220.641 331.748 220.339 331.407C220 330.991 219.849 330.461 219.849 329.856C219.849 329.629 219.849 329.439 219.886 329.212C219.962 328.531 220.226 327.661 220.679 326.79C221.924 324.028 224.603 320.773 227.962 319.752C228.83 319.487 229.622 319.411 230.301 319.411C231.66 319.411 232.641 319.827 233.283 320.509C234.566 319.411 236.113 318.352 236.905 318.352C237.018 318.352 237.169 318.389 237.245 318.427C237.811 318.503 238.113 319.071 238.113 320.017C238.113 321.076 237.773 322.552 237.018 324.406C236.528 325.693 236.339 326.79 236.339 327.661C236.339 329.931 237.773 330.726 239.886 330.726C245.396 330.726 255.584 324.898 257.132 323.006C257.396 322.476 257.698 322.325 257.962 322.325C258.339 322.325 258.603 322.666 258.603 323.158C258.603 323.422 258.528 323.687 258.301 323.952C257.773 324.709 246.188 331.521 239.434 331.521C236.679 331.521 234.717 330.348 234.717 327.093C234.717 326.223 234.83 325.239 235.132 324.028C235.396 322.363 235.962 320.849 235.962 320.509V320.471C235.962 320.471 235.32 321.076 234.301 322.022C234.49 322.552 234.49 323.082 234.49 323.309V323.498C234.113 324.066 233.584 324.331 233.094 324.331C232.905 324.331 232.754 324.293 232.566 324.217L232.452 323.839C231.849 324.293 231.584 324.52 230.868 325.239ZM230.113 322.363C228.037 322.363 224.415 327.093 224.415 328.077C224.415 328.191 224.49 328.304 224.679 328.304C225.509 328.304 228.113 326.223 230.83 322.59C230.603 322.401 230.377 322.363 230.113 322.363Z" fill="#C7B199"/>
<path d="M265.358 323.423C265.358 323.196 265.32 322.855 265.131 322.552C264.528 323.196 263.886 323.915 263.245 324.596C260.188 327.964 256.98 331.483 254.905 332.164C254.528 332.278 254.15 332.353 253.848 332.353C253.509 332.353 253.207 332.278 252.943 332.126C252.339 331.824 252.075 331.332 252.075 330.764C252.075 330.499 252.112 330.234 252.188 329.969C252.301 329.402 252.716 328.721 253.169 327.926C255.169 324.936 259.584 320.66 262.339 320.206C262.867 320.13 263.282 320.13 263.697 320.13C264.075 320.13 264.452 320.13 264.754 320.206C266.867 318.049 268.754 316.384 270.112 316.384C270.301 316.384 270.414 316.422 270.603 316.46C271.471 316.762 271.999 317.671 271.999 319.411C271.999 320.055 271.924 320.887 271.735 321.833C271.395 323.99 271.056 325.655 270.301 328.531C270.226 328.834 269.697 330.499 269.622 330.84C273.395 325.807 284.792 321.606 288.414 321.606C288.641 321.606 288.792 321.606 288.98 321.644C289.509 321.833 289.66 322.023 289.66 322.287C289.66 322.59 289.358 322.969 288.98 323.385C279.509 323.725 271.282 329.023 268.528 335.078C266.792 341.171 263.622 350.328 261.584 355.702C261.056 357.178 257.056 368.001 254.528 368.001C254.452 368.001 254.301 368.001 254.226 367.963C253.056 367.585 252.716 366.298 252.716 364.973C252.716 363.535 253.094 362.022 253.282 361.416C253.961 358.729 255.169 355.324 256.792 351.653C259.018 346.658 263.358 338.068 266.716 333.451C267.245 331.634 267.886 330.537 268.301 328.834C269.018 325.996 269.584 323.461 269.999 321.341C270.263 319.828 270.377 318.957 270.377 318.503C270.377 318.276 270.339 318.163 270.301 318.163H270.188C269.584 318.163 268.15 319.411 266.452 321.19C267.018 321.871 267.131 322.779 267.131 323.498C267.131 324.066 267.056 324.444 267.056 324.444L265.32 323.801C265.32 323.801 265.358 323.65 265.358 323.423ZM264.943 340.603C263.131 343.744 260.49 349.647 259.094 352.75C257.546 356.345 256.339 359.751 255.622 362.362C255.131 364.103 254.867 365.39 254.867 366.109V366.222C255.697 365.465 258.377 360.697 260.641 354.718C261.999 351.123 263.697 344.69 264.943 340.603ZM255.773 329.137C259.282 327.358 261.735 324.634 263.358 322.325C261.433 323.385 257.094 327.51 255.773 329.137Z" fill="#C7B199"/>
<path d="M295.358 320.471C295.358 324.104 289.508 326.45 288.301 326.942C288.301 327.207 288.263 327.51 288.263 327.813C288.263 328.872 288.452 330.083 288.942 330.84C289.508 331.71 290.452 332.089 291.659 332.089C297.622 332.089 309.584 323.044 309.622 323.007C309.81 322.893 309.961 322.817 310.15 322.817C310.716 322.817 311.207 323.347 311.207 323.877C311.207 324.104 311.093 324.293 310.867 324.482C310.791 324.52 299.131 332.959 292.037 332.959C290.188 332.959 288.603 332.391 287.659 330.916C286.829 329.705 286.527 328.38 286.527 327.131C286.527 324.709 287.735 322.401 289.169 320.698C289.961 319.79 290.829 319.109 291.584 318.655C292.188 318.314 292.754 318.125 293.32 318.125C293.622 318.125 293.924 318.163 294.188 318.314C294.791 318.579 295.244 319.147 295.32 319.979C295.32 320.168 295.358 320.32 295.358 320.471ZM292.716 320.471C292.716 320.395 292.678 320.358 292.603 320.358C291.735 320.471 290.905 322.098 288.905 324.709C291.697 322.325 292.716 320.887 292.716 320.471Z" fill="#C7B199"/>
<path d="M310 333.034C310 333.261 310.037 333.375 310.188 333.375C310.226 333.375 310.301 333.375 310.415 333.299C317.245 324.558 320.754 315.665 324.981 315.665C325.509 315.665 326.037 315.778 326.566 316.043C327.32 316.649 327.622 317.33 327.622 318.2C327.622 319.903 326.528 322.249 325.245 326.223C324.49 327.736 323.358 329.818 323.358 330.158L323.396 330.196C323.924 330.196 328.339 324.33 331.018 324.33H331.245C334.528 325.579 332.603 332.088 336.301 332.088C336.528 332.088 336.679 332.088 336.943 332.05C339.094 331.71 344.905 327.434 348.15 323.12C348.377 322.779 348.679 322.628 349.018 322.628C349.66 322.628 350.377 323.195 350.377 323.687C350.377 323.801 350.339 323.914 350.301 323.99C345.886 328.72 339.471 332.353 337.018 332.769C336.717 332.807 336.452 332.845 336.188 332.845C331.886 332.845 332.113 326.374 330.83 326.374C330.754 326.374 330.717 326.412 330.603 326.45C327.584 328.039 324.188 334.094 322.339 334.321C322.075 334.359 321.773 334.359 321.509 334.359C320.339 334.359 319.207 333.98 319.207 332.656C319.207 332.391 319.245 332.126 319.32 331.823C319.32 331.785 324.679 320.584 324.679 317.443C324.679 317.103 324.641 316.876 324.49 316.762H324.301C321.283 316.762 313.622 334.737 309.056 336.856C307.547 336.818 306.528 336.629 306.528 334.472C306.528 333.64 306.641 332.58 307.018 331.104C308.603 324.671 311.056 317.557 311.66 316.308C311.773 315.475 313.018 315.059 314.075 315.059C315.018 315.059 315.886 315.362 315.886 316.005C315.886 316.081 315.849 316.194 315.849 316.27C315.849 316.308 310 330.612 310 333.034Z" fill="#C7B199"/>
<path d="M356.038 320.471C356.038 324.104 350.189 326.45 348.981 326.942C348.981 327.207 348.943 327.51 348.943 327.813C348.943 328.872 349.132 330.083 349.623 330.84C350.189 331.71 351.132 332.089 352.34 332.089C358.302 332.089 370.264 323.044 370.302 323.007C370.491 322.893 370.641 322.817 370.83 322.817C371.396 322.817 371.887 323.347 371.887 323.877C371.887 324.104 371.774 324.293 371.547 324.482C371.472 324.52 359.811 332.959 352.717 332.959C350.868 332.959 349.283 332.391 348.34 330.916C347.509 329.705 347.208 328.38 347.208 327.131C347.208 324.709 348.415 322.401 349.849 320.698C350.641 319.79 351.509 319.109 352.264 318.655C352.868 318.314 353.434 318.125 354 318.125C354.302 318.125 354.604 318.163 354.868 318.314C355.472 318.579 355.924 319.147 356 319.979C356 320.168 356.038 320.32 356.038 320.471ZM353.396 320.471C353.396 320.395 353.358 320.358 353.283 320.358C352.415 320.471 351.585 322.098 349.585 324.709C352.34 322.325 353.396 320.887 353.396 320.471Z" fill="#C7B199"/>
<path d="M371.169 328.266C373.584 325.088 376.075 322.363 377.962 322.363C378.83 322.363 379.547 322.893 380.113 324.104C381.999 328.493 384.301 330.196 386.943 330.196C390.377 330.196 394.415 327.282 399.056 323.914C399.245 323.687 399.433 323.65 399.622 323.65C400.037 323.65 400.452 324.066 400.452 324.482C400.452 324.709 400.339 324.898 400.075 325.05C396.603 327.774 391.433 331.71 386.679 331.71C383.735 331.71 380.981 330.196 378.981 325.769C378.867 325.39 378.641 325.201 378.377 325.201C376.15 325.201 369.811 334.132 369.735 335.04C369.471 335.608 368.641 335.91 367.962 335.91C367.358 335.91 366.83 335.646 366.83 335.078V334.889L371.018 318.049C371.245 317.179 371.886 316.8 372.528 316.8C373.32 316.8 374.075 317.368 374.075 318.352V318.427L371.169 328.266Z" fill="#C7B199"/>
<path d="M383.999 306.015C389.056 306.015 396.452 305.712 406.113 304.918C411.735 291.711 417.622 281.607 420.339 281.607H420.414C421.245 281.91 421.584 282.667 421.584 283.688C421.584 288.646 413.094 300.452 409.999 304.729C413.811 304.464 439.509 302.155 443.848 302.155C444.15 302.155 444.377 302.155 444.452 302.193C444.641 302.458 444.716 302.685 444.716 302.874C444.716 304.426 441.131 305.599 441.131 305.599C440.943 305.675 440.792 305.712 440.603 305.712C439.999 305.712 439.509 305.183 439.509 304.577C439.509 304.388 439.547 304.237 439.622 304.047C439.622 304.047 419.358 304.918 409.32 305.75C405.811 310.67 394.716 336.743 394.716 348.853C394.716 352.41 395.698 354.794 398.15 355.021C398.679 355.059 398.905 355.399 398.905 355.778C398.905 356.27 398.528 356.762 398.037 356.762C397.962 356.762 397.848 356.762 397.773 356.724C395.245 355.626 394.226 352.372 394.226 347.831C394.226 337.5 399.584 320.357 405.584 306.053C398.565 306.091 389.999 306.394 383.66 306.394C378.716 306.394 375.169 306.167 374.905 305.523C374.867 305.448 374.83 305.334 374.83 305.258C374.83 304.691 375.773 304.464 376.339 304.464H376.603C377.245 304.464 378.264 304.729 378.264 305.712C379.622 305.977 381.584 306.015 383.999 306.015ZM419.282 285.202C419.547 284.407 419.66 283.953 419.66 283.764C419.66 283.726 419.622 283.688 419.622 283.688C418.981 283.688 411.282 299.431 411.131 299.847C413.32 297.16 418.188 288.229 419.282 285.202Z" fill="#C7B199"/>
<path d="M71.7734 288.078C71.8111 290.083 73.4715 291.71 75.4715 291.71H76.1885V292.278H63.547V291.71H64.2639C66.3017 291.71 67.9243 290.083 67.962 288.078V253.225L61.7734 253.603C58.3017 253.792 56.113 254.89 55.9243 257.425C55.7356 259.772 57.0941 261.588 60.113 261.702V262.042C56.5281 262.988 53.8111 260.566 53.9243 257.425C54.0375 254.701 56.0753 252.506 61.396 251.9C64.679 251.56 70.6413 251.56 76.1507 250.5L76.2639 251.068C72.7922 251.635 71.7356 253.414 71.6979 256.29L71.7734 288.078Z" fill="white"/>
<path d="M125.737 251.711V252.279H124.68C122.756 252.279 121.171 253.831 121.095 255.76V285.731C121.095 289.478 121.624 293.149 121.624 293.149H121.095L89.5483 259.393V288.305C89.6238 290.235 91.1709 291.786 93.1332 291.786H94.1898V292.354H82.2275V291.786H83.2841C85.2464 291.786 86.8313 290.235 86.869 288.267V258.107C86.869 254.133 86.3407 250.841 86.3407 250.841H86.9068L118.416 284.596V255.798C118.378 253.868 116.794 252.279 114.831 252.279H113.775V251.711H125.737Z" fill="white"/>
<path d="M155.057 252.354V253.338V257.198H154.491V256.328C154.491 254.776 153.245 253.49 151.698 253.452H139.472V271.389H149.245C150.793 271.351 152.038 270.102 152.038 268.513V267.643H152.604V276.876H152.038V276.006C152.038 274.454 150.83 273.206 149.283 273.13H139.434V288.078C139.472 290.083 141.132 291.71 143.132 291.71H143.849V292.278H131.17V291.71H131.887C133.925 291.71 135.547 290.083 135.585 288.078V255.571C135.585 253.717 133.811 252.241 131.887 252.241H131.17V251.673H148.076C150.566 251.635 153.887 251.068 154.981 250.614L155.057 252.354Z" fill="white"/>
<path d="M189.887 282.931L186.529 292.316H162.529V291.748H163.246C165.284 291.748 166.906 290.121 166.944 288.116V255.95C166.906 253.944 165.246 252.317 163.246 252.317H162.529V251.749H175.208V252.317H174.491C172.453 252.317 170.831 253.944 170.793 255.95V290.575H179.095C185.246 290.575 187.585 287.397 189.359 282.969L189.887 282.931Z" fill="white"/>
<path d="M233.246 251.712V252.279H232.302C230.68 252.279 229.359 253.414 229.246 255.004V277.974C229.246 287.056 223.019 293.149 213.661 293.149C204.038 293.149 197.623 287.132 197.623 278.088V255.155C197.585 253.49 196.227 252.279 194.566 252.279H193.623V251.712H205.397V252.279H204.453C202.793 252.279 201.472 253.452 201.397 255.079V277.217C201.397 285.656 206.302 291.294 213.699 291.294C221.434 291.294 226.566 285.959 226.604 277.936V255.042C226.529 253.414 225.208 252.241 223.548 252.241H222.604V251.674L233.246 251.712Z" fill="white"/>
<path d="M266.982 282.932L263.623 292.316H239.623V291.749H240.34C242.378 291.749 244 290.122 244.038 288.116V255.609C244.038 253.755 242.265 252.279 240.34 252.279H239.623V251.712H256.529C259.019 251.674 262.34 251.106 263.434 250.652V252.355V253.339V257.956H262.868V256.934C262.868 255.08 261.434 253.604 259.623 253.49H247.812V271.427H257.585C259.132 271.39 260.378 270.141 260.378 268.551V267.681H260.944V276.877H260.378V276.006C260.378 274.455 259.17 273.206 257.623 273.13H247.774V290.538H256.076C262.227 290.538 264.566 287.359 266.34 282.932H266.982Z" fill="white"/>
<path d="M315.623 251.711V252.279H314.567C312.642 252.279 311.057 253.831 310.982 255.76V285.731C310.982 289.478 311.51 293.149 311.51 293.149H310.982L279.435 259.393V288.305C279.51 290.235 281.057 291.786 283.019 291.786H284.076V292.354H272.114V291.786H273.17C275.133 291.786 276.718 290.235 276.755 288.267V258.107C276.755 254.133 276.227 250.841 276.227 250.841H276.793L308.302 284.596V255.798C308.265 253.868 306.68 252.279 304.718 252.279H303.661V251.711H315.623Z" fill="white"/>
<path d="M358.152 275.4L357.435 284.52C354.378 289.478 349.209 293.148 341.171 293.148C329.058 293.073 320.492 284.785 320.492 271.957C320.492 259.355 328.756 250.879 341.511 250.879C347.171 250.879 351.812 252.544 355.209 254.814L356.378 263.026H355.888C354.114 256.252 348.454 252.657 341.511 252.657C331.322 252.657 324.869 260.377 324.869 271.919C324.869 283.574 331.473 291.181 341.209 291.408C349.435 291.37 356.378 287.283 357.699 275.4H358.152Z" fill="white"/>
<path d="M391.849 282.932L388.491 292.316H364.491V291.749H365.208C367.245 291.749 368.868 290.122 368.906 288.116V255.609C368.906 253.755 367.132 252.279 365.208 252.279H364.491V251.712H381.396C383.887 251.674 387.208 251.106 388.302 250.652V252.355V253.339V257.956H387.736V256.934C387.736 255.08 386.302 253.604 384.491 253.49H372.679V271.427H382.453C384 271.39 385.245 270.141 385.245 268.551V267.681H385.811V276.877H385.245V276.006C385.245 274.455 384.038 273.206 382.491 273.13H372.642V290.538H380.944C387.095 290.538 389.434 287.359 391.208 282.932H391.849Z" fill="white"/>
<path d="M437.434 292.316H424.755V291.749H425.472C427.472 291.749 429.132 290.121 429.17 288.116V273.092H405.472V288.116C405.509 290.121 407.17 291.749 409.17 291.749H409.887V292.316H397.208V291.749H397.925C399.962 291.749 401.585 290.159 401.623 288.116V255.912C401.585 253.906 399.925 252.279 397.925 252.279H397.208V251.712H409.887V252.279H409.17C407.17 252.279 405.509 253.906 405.472 255.874V271.352H429.17V255.836C429.094 253.831 427.472 252.241 425.472 252.241H424.755V251.674H437.434V252.241H436.717C434.679 252.241 433.057 253.869 433.019 255.874V288.078C433.057 290.083 434.717 291.711 436.717 291.711H437.434V292.316Z" fill="white"/>
<path d="M452.227 282.932L448.868 292.316H424.868V291.749H425.585C427.623 291.749 429.246 290.122 429.283 288.116V255.609C429.283 253.755 427.51 252.279 425.585 252.279H424.868V251.712H441.774C444.264 251.674 447.585 251.106 448.679 250.652V252.355V253.339V257.956H448.113V256.934C448.113 255.08 446.68 253.604 444.868 253.49H433.057V271.427H442.83C444.378 271.39 445.623 270.141 445.623 268.551V267.681H446.189V276.877H445.623V276.006C445.623 274.455 444.415 273.206 442.868 273.13H433.019V290.538H441.321C447.472 290.538 449.812 287.359 451.585 282.932H452.227Z" fill="white"/>
<path d="M473.284 251.711C480.303 251.711 484.605 255.874 484.605 262.61C484.605 268.211 480.34 273.66 474.755 273.66C476.001 274.228 477.774 276.157 478.906 277.747C478.906 277.747 483.888 284.899 486.152 287.359C488.491 289.894 490.605 291.711 494.039 291.748V292.316H490.869C485.472 292.316 482.605 289.402 480.756 287.245C480.114 286.451 473.586 276.952 473.133 276.385C471.623 274.492 469.925 272.487 467.812 272.487V271.957C467.812 271.957 469.133 271.995 470.869 271.919C473.888 271.843 478.265 271.124 479.888 265.902C480.152 265.108 480.303 263.707 480.265 262.421C480.114 257.161 477.397 253.793 473.095 253.566C470.152 253.414 466.642 253.566 465.888 253.528V288.116C465.925 290.121 467.586 291.748 469.586 291.748H470.303V292.316H457.661V291.748H458.378C460.378 291.748 462.039 290.121 462.076 288.116V255.912C462.039 253.906 460.378 252.279 458.378 252.279H457.661V251.711H473.284Z" fill="white"/>
</g>
<defs>
<clipPath id="clip0_261_35">
<rect width="440" height="188" fill="white" transform="translate(54 180)"/>
</clipPath>
</defs>
</svg>
