<svg width="266" height="114" viewBox="0 0 266 114" fill="none" xmlns="http://www.w3.org/2000/svg">
<g clip-path="url(#clip0_212_259)">
<path d="M80.3478 52.0034C77.6331 52.0034 76.2871 50.1555 76.2871 46.437C76.2871 45.0226 76.6065 43.2204 77.2453 41.0531C77.884 38.8859 78.6369 36.6274 79.5494 34.2777C80.4619 31.9279 81.4429 29.5326 82.5151 27.1144C83.5873 24.6734 84.6139 22.5061 85.5948 20.6127C86.5758 18.7192 87.3742 17.1223 87.9902 15.8219C88.6062 14.5444 88.9712 13.86 89.0624 13.7687L95.0394 15.5025C93.8075 17.8979 92.7353 20.0423 91.8456 21.9358C90.9559 23.8293 89.9977 25.9965 88.9255 28.3691C87.8533 30.7645 86.8952 33.137 86.0055 35.4639C85.1158 37.8137 84.3857 40.0494 83.8154 42.171C83.2451 44.2926 82.9485 46.0264 82.9485 47.3495C82.9485 48.2392 83.382 48.6727 84.2717 48.6727C85.9598 48.6727 87.7164 47.8971 89.5871 46.3458C91.435 44.7945 93.4425 42.901 95.5641 40.6425C97.6857 38.384 99.9214 35.8974 102.271 33.2055C104.621 30.5135 107.176 28.0269 109.982 25.7684C112.788 23.5099 115.754 21.6164 118.947 20.0651C122.141 18.5139 125.586 17.7382 129.305 17.7382C135.418 17.7382 141.555 18.1717 147.76 19.0614C153.965 19.9511 160.171 20.9092 166.421 21.913C172.672 22.9396 178.877 23.8749 185.082 24.7646C191.288 25.6543 197.424 26.0878 203.538 26.0878C206.185 26.0878 208.968 25.8825 211.842 25.4946C214.717 25.1068 217.5 24.3996 220.215 23.373C222.906 22.3465 225.439 21.0233 227.788 19.3808C230.138 17.7382 232.1 15.685 233.697 13.1984L234.769 13.86C233.355 16.3466 231.439 18.5367 229.066 20.4302C226.671 22.3236 224.047 23.9206 221.173 25.2209C218.298 26.4984 215.333 27.4794 212.276 28.141C209.219 28.8025 206.276 29.1447 203.447 29.1447C197.424 29.1447 191.288 28.7797 185.06 28.0269C178.809 27.2741 172.581 26.4528 166.33 25.5631C160.079 24.6734 153.829 23.8521 147.532 23.0993C141.236 22.3465 135.008 21.9814 128.803 21.9814C124.81 21.9814 121.16 22.7115 117.852 24.1715C114.522 25.6315 111.488 27.5022 108.682 29.7379C105.876 31.9736 103.298 34.4145 100.902 36.9696C98.507 39.5475 96.1801 41.9428 93.9216 44.2013C91.6631 46.4598 89.4502 48.3077 87.283 49.7677C85.0701 51.2734 82.766 52.0034 80.3478 52.0034ZM99.6705 4.18727C99.6705 5.25949 99.2826 6.12638 98.5526 6.83359C97.7998 7.54079 96.9329 7.9058 95.9519 7.9058C94.8797 7.9058 94.0128 7.5636 93.3056 6.83359C92.5984 6.12638 92.2334 5.23667 92.2334 4.18727C92.2334 3.20631 92.5756 2.36223 93.3056 1.58659C94.0128 0.833759 94.9025 0.46875 95.9519 0.46875C96.9329 0.46875 97.777 0.856572 98.5526 1.58659C99.2826 2.36223 99.6705 3.20631 99.6705 4.18727Z" fill="#C7B199"/>
<path d="M41.1774 92.7244C41.1774 92.8613 41.2002 92.9297 41.2915 92.9297C41.3143 92.9297 41.3599 92.9297 41.4284 92.8841C45.5575 87.6143 47.6791 82.2532 50.2342 82.2532C50.5536 82.2532 50.873 82.3216 51.1923 82.4813C51.6486 82.8463 51.8311 83.257 51.8311 83.7817C51.8311 84.8083 51.1695 86.2227 50.3939 88.618C49.9376 89.5306 49.2532 90.7853 49.2532 90.9906L49.276 91.0134C49.5954 91.0134 52.2645 87.4774 53.8843 87.4774H54.0212C56.0059 88.2302 54.8424 92.154 57.0781 92.154C57.215 92.154 57.3062 92.154 57.4659 92.1312C58.7663 91.9259 62.2795 89.348 64.2414 86.7474C64.3783 86.542 64.5608 86.4508 64.7661 86.4508C65.1539 86.4508 65.5874 86.793 65.5874 87.0896C65.5874 87.158 65.5645 87.2264 65.5417 87.2721C62.8726 90.1237 58.9944 92.3137 57.5115 92.5647C57.329 92.5875 57.1693 92.6103 57.0097 92.6103C54.409 92.6103 54.5459 88.7093 53.7702 88.7093C53.7246 88.7093 53.7018 88.7321 53.6333 88.7549C51.8083 89.7131 49.7551 93.3631 48.6373 93.5C48.4776 93.5228 48.2951 93.5228 48.1354 93.5228C47.4282 93.5228 46.7438 93.2947 46.7438 92.4962C46.7438 92.3366 46.7666 92.1769 46.8122 91.9944C46.8122 91.9715 50.0517 85.2189 50.0517 83.3254C50.0517 83.1201 50.0289 82.9832 49.9376 82.9148H49.8236C47.9985 82.9148 43.3675 93.751 40.6071 95.0285C39.6946 95.0057 39.0786 94.8916 39.0786 93.5913C39.0786 93.0894 39.1471 92.4506 39.3752 91.5609C40.3333 87.6827 41.8162 83.3938 42.1812 82.641C42.2496 82.1391 43.0025 81.8882 43.6412 81.8882C44.2115 81.8882 44.7362 82.0707 44.7362 82.4585C44.7362 82.5041 44.7134 82.5726 44.7134 82.6182C44.7134 82.641 41.1774 91.2643 41.1774 92.7244Z" fill="#C7B199"/>
<path d="M68.7586 88.025C66.6826 89.9869 64.3328 92.177 63.215 92.177C63.1922 92.177 63.1466 92.1542 63.0781 92.1542C62.7816 92.1086 62.5762 91.9489 62.3937 91.7435C62.1884 91.4926 62.0972 91.1732 62.0972 90.8082C62.0972 90.6713 62.0972 90.5573 62.12 90.4204C62.1656 90.0097 62.3253 89.4851 62.5991 88.9604C63.3519 87.295 64.9716 85.3331 67.002 84.7171C67.5267 84.5574 68.0057 84.5118 68.4164 84.5118C69.2376 84.5118 69.8308 84.7628 70.2186 85.1734C70.9942 84.5118 71.9296 83.873 72.4087 83.873C72.4771 83.873 72.5683 83.8959 72.614 83.9187C72.9562 83.9643 73.1387 84.3065 73.1387 84.8768C73.1387 85.5156 72.9334 86.4053 72.4771 87.5231C72.1805 88.2988 72.0665 88.9604 72.0665 89.4851C72.0665 90.8538 72.9334 91.3329 74.2109 91.3329C77.5416 91.3329 83.7011 87.8197 84.6364 86.679C84.7961 86.3597 84.9786 86.2684 85.1383 86.2684C85.3665 86.2684 85.5262 86.4737 85.5262 86.7703C85.5262 86.93 85.4805 87.0897 85.3436 87.2494C85.0243 87.7056 78.0207 91.812 73.9371 91.812C72.2718 91.812 71.0855 91.1048 71.0855 89.1429C71.0855 88.6182 71.1539 88.025 71.3364 87.295C71.4961 86.2912 71.8383 85.3787 71.8383 85.1734V85.1506C71.8383 85.1506 71.4505 85.5156 70.8346 86.0859C70.9486 86.4053 70.9486 86.7247 70.9486 86.8616V86.9756C70.7205 87.3178 70.4011 87.4775 70.1045 87.4775C69.9905 87.4775 69.8992 87.4547 69.7852 87.4091L69.7167 87.1809C69.3517 87.4547 69.192 87.5916 68.7586 88.025ZM68.3023 86.2912C67.0476 86.2912 64.8575 89.1429 64.8575 89.736C64.8575 89.8044 64.9032 89.8729 65.0172 89.8729C65.5191 89.8729 67.0932 88.6182 68.7358 86.4281C68.5989 86.314 68.462 86.2912 68.3023 86.2912Z" fill="#C7B199"/>
<path d="M85.686 89.8503C87.146 87.934 88.6517 86.2915 89.7923 86.2915C90.317 86.2915 90.7505 86.6109 91.0927 87.3409C92.2333 89.9872 93.6249 91.0138 95.2218 91.0138C97.2978 91.0138 99.7388 89.2572 102.545 87.2268C102.659 87.09 102.773 87.0671 102.887 87.0671C103.138 87.0671 103.389 87.3181 103.389 87.569C103.389 87.7059 103.32 87.82 103.161 87.9112C101.062 89.5538 97.9366 91.9263 95.0622 91.9263C93.2827 91.9263 91.6174 91.0138 90.4083 88.3447C90.3399 88.1165 90.203 88.0025 90.0433 88.0025C88.6973 88.0025 84.8647 93.3864 84.8191 93.9339C84.6594 94.2761 84.1575 94.4586 83.7469 94.4586C83.3819 94.4586 83.0625 94.2989 83.0625 93.9567V93.8426L85.5947 83.6908C85.7316 83.1661 86.1194 82.938 86.5073 82.938C86.9863 82.938 87.4426 83.2802 87.4426 83.8733V83.9189L85.686 89.8503Z" fill="#C7B199"/>
<path d="M106.925 88.025C104.849 89.9869 102.499 92.177 101.382 92.177C101.359 92.177 101.313 92.1542 101.245 92.1542C100.948 92.1086 100.743 91.9489 100.56 91.7435C100.355 91.4926 100.264 91.1732 100.264 90.8082C100.264 90.6713 100.264 90.5573 100.286 90.4204C100.332 90.0097 100.492 89.4851 100.766 88.9604C101.518 87.295 103.138 85.3331 105.168 84.7171C105.693 84.5574 106.172 84.5118 106.583 84.5118C107.404 84.5118 107.997 84.7628 108.385 85.1734C109.161 84.5118 110.096 83.873 110.575 83.873C110.644 83.873 110.735 83.8959 110.78 83.9187C111.123 83.9643 111.305 84.3065 111.305 84.8768C111.305 85.5156 111.1 86.4053 110.644 87.5231C110.347 88.2988 110.233 88.9604 110.233 89.4851C110.233 90.8538 111.1 91.3329 112.377 91.3329C115.708 91.3329 121.868 87.8197 122.803 86.679C122.963 86.3597 123.145 86.2684 123.305 86.2684C123.533 86.2684 123.693 86.4737 123.693 86.7703C123.693 86.93 123.647 87.0897 123.51 87.2494C123.191 87.7056 116.187 91.812 112.104 91.812C110.438 91.812 109.252 91.1048 109.252 89.1429C109.252 88.6182 109.32 88.025 109.503 87.295C109.663 86.2912 110.005 85.3787 110.005 85.1734V85.1506C110.005 85.1506 109.617 85.5156 109.001 86.0859C109.115 86.4053 109.115 86.7247 109.115 86.8616V86.9756C108.887 87.3178 108.568 87.4775 108.271 87.4775C108.157 87.4775 108.066 87.4547 107.952 87.4091L107.883 87.1809C107.518 87.4547 107.359 87.5916 106.925 88.025ZM106.469 86.2912C105.214 86.2912 103.024 89.1429 103.024 89.736C103.024 89.8044 103.07 89.8729 103.184 89.8729C103.686 89.8729 105.26 88.6182 106.902 86.4281C106.765 86.314 106.629 86.2912 106.469 86.2912Z" fill="#C7B199"/>
<path d="M127.776 86.9302C127.776 86.7934 127.753 86.588 127.639 86.4055C127.274 86.7934 126.886 87.2268 126.498 87.6374C124.65 89.6678 122.711 91.7894 121.457 92.2C121.228 92.2685 121 92.3141 120.818 92.3141C120.612 92.3141 120.43 92.2685 120.27 92.1772C119.905 91.9947 119.746 91.6982 119.746 91.356C119.746 91.1963 119.768 91.0366 119.814 90.8769C119.882 90.5347 120.133 90.1241 120.407 89.645C121.616 87.8428 124.285 85.2649 125.951 84.9911C126.27 84.9455 126.521 84.9455 126.772 84.9455C127 84.9455 127.228 84.9455 127.411 84.9911C128.688 83.6908 129.829 82.687 130.65 82.687C130.764 82.687 130.833 82.7098 130.947 82.7326C131.472 82.9151 131.791 83.4627 131.791 84.5121C131.791 84.8999 131.745 85.4018 131.631 85.9721C131.426 87.2724 131.221 88.2762 130.764 90.01C130.719 90.1925 130.399 91.1963 130.354 91.4016C132.635 88.3675 139.525 85.8352 141.715 85.8352C141.851 85.8352 141.943 85.8352 142.057 85.858C142.376 85.9721 142.467 86.0862 142.467 86.2458C142.467 86.4284 142.285 86.6565 142.057 86.9074C136.331 87.1127 131.357 90.3066 129.692 93.9566C128.643 97.6295 126.726 103.15 125.494 106.39C125.175 107.279 122.757 113.804 121.228 113.804C121.183 113.804 121.092 113.804 121.046 113.781C120.339 113.553 120.133 112.777 120.133 111.979C120.133 111.112 120.362 110.2 120.476 109.835C120.886 108.215 121.616 106.162 122.597 103.949C123.943 100.937 126.567 95.7589 128.597 92.9757C128.916 91.8807 129.304 91.2191 129.555 90.1925C129.989 88.4815 130.331 86.9531 130.582 85.6755C130.741 84.763 130.81 84.2383 130.81 83.9645C130.81 83.8277 130.787 83.7592 130.764 83.7592H130.696C130.331 83.7592 129.464 84.5121 128.437 85.5843C128.78 85.9949 128.848 86.5424 128.848 86.9759C128.848 87.3181 128.802 87.5462 128.802 87.5462L127.753 87.1584C127.753 87.1584 127.776 87.0671 127.776 86.9302ZM127.525 97.2874C126.43 99.1808 124.833 102.74 123.989 104.61C123.053 106.778 122.323 108.831 121.89 110.405C121.593 111.454 121.434 112.23 121.434 112.663V112.732C121.936 112.276 123.555 109.401 124.924 105.797C125.745 103.629 126.772 99.7512 127.525 97.2874ZM121.981 90.375C124.103 89.3028 125.586 87.6603 126.567 86.2687C125.403 86.9074 122.78 89.394 121.981 90.375Z" fill="#C7B199"/>
<path d="M145.912 85.1507C145.912 87.3408 142.376 88.7552 141.646 89.0518C141.646 89.2115 141.623 89.394 141.623 89.5765C141.623 90.2152 141.737 90.9452 142.034 91.4015C142.376 91.9262 142.946 92.1543 143.676 92.1543C147.281 92.1543 154.512 86.702 154.535 86.6792C154.649 86.6108 154.741 86.5651 154.855 86.5651C155.197 86.5651 155.493 86.8845 155.493 87.2039C155.493 87.3408 155.425 87.4549 155.288 87.5689C155.243 87.5917 148.193 92.679 143.904 92.679C142.787 92.679 141.828 92.3368 141.258 91.4471C140.756 90.7171 140.574 89.9187 140.574 89.1658C140.574 87.7058 141.304 86.3142 142.171 85.2876C142.65 84.7401 143.174 84.3295 143.631 84.0557C143.996 83.8504 144.338 83.7363 144.68 83.7363C144.863 83.7363 145.045 83.7591 145.205 83.8504C145.57 84.0101 145.844 84.3523 145.889 84.8542C145.889 84.9682 145.912 85.0595 145.912 85.1507ZM144.315 85.1507C144.315 85.1051 144.292 85.0823 144.247 85.0823C143.722 85.1507 143.22 86.1317 142.011 87.7058C143.699 86.2686 144.315 85.4017 144.315 85.1507Z" fill="#C7B199"/>
<path d="M154.764 92.7244C154.764 92.8613 154.787 92.9297 154.878 92.9297C154.901 92.9297 154.946 92.9297 155.015 92.8841C159.144 87.6143 161.266 82.2532 163.821 82.2532C164.14 82.2532 164.459 82.3216 164.779 82.4813C165.235 82.8463 165.418 83.257 165.418 83.7817C165.418 84.8083 164.756 86.2227 163.98 88.618C163.524 89.5306 162.84 90.7853 162.84 90.9906L162.862 91.0134C163.182 91.0134 165.851 87.4774 167.471 87.4774H167.608C169.592 88.2302 168.429 92.154 170.665 92.154C170.801 92.154 170.893 92.154 171.052 92.1312C172.353 91.9259 175.866 89.348 177.828 86.7474C177.965 86.542 178.147 86.4508 178.353 86.4508C178.74 86.4508 179.174 86.793 179.174 87.0896C179.174 87.158 179.151 87.2264 179.128 87.2721C176.459 90.1237 172.581 92.3137 171.098 92.5647C170.915 92.5875 170.756 92.6103 170.596 92.6103C167.995 92.6103 168.132 88.7093 167.357 88.7093C167.311 88.7093 167.288 88.7321 167.22 88.7549C165.395 89.7131 163.342 93.3631 162.224 93.5C162.064 93.5228 161.882 93.5228 161.722 93.5228C161.015 93.5228 160.33 93.2947 160.33 92.4962C160.33 92.3366 160.353 92.1769 160.399 91.9944C160.399 91.9715 163.638 85.2189 163.638 83.3254C163.638 83.1201 163.615 82.9832 163.524 82.9148H163.41C161.585 82.9148 156.954 93.751 154.194 95.0285C153.281 95.0057 152.665 94.8916 152.665 93.5913C152.665 93.0894 152.733 92.4506 152.962 91.5609C153.92 87.6827 155.403 83.3938 155.768 82.641C155.836 82.1391 156.589 81.8882 157.228 81.8882C157.798 81.8882 158.323 82.0707 158.323 82.4585C158.323 82.5041 158.3 82.5726 158.3 82.6182C158.3 82.641 154.764 91.2643 154.764 92.7244Z" fill="#C7B199"/>
<path d="M182.596 85.1507C182.596 87.3408 179.06 88.7552 178.33 89.0518C178.33 89.2115 178.307 89.394 178.307 89.5765C178.307 90.2152 178.421 90.9452 178.718 91.4015C179.06 91.9262 179.63 92.1543 180.36 92.1543C183.965 92.1543 191.197 86.702 191.219 86.6792C191.333 86.6108 191.425 86.5651 191.539 86.5651C191.881 86.5651 192.178 86.8845 192.178 87.2039C192.178 87.3408 192.109 87.4549 191.972 87.5689C191.927 87.5917 184.877 92.679 180.589 92.679C179.471 92.679 178.513 92.3368 177.942 91.4471C177.44 90.7171 177.258 89.9187 177.258 89.1658C177.258 87.7058 177.988 86.3142 178.855 85.2876C179.334 84.7401 179.859 84.3295 180.315 84.0557C180.68 83.8504 181.022 83.7363 181.364 83.7363C181.547 83.7363 181.729 83.7591 181.889 83.8504C182.254 84.0101 182.528 84.3523 182.573 84.8542C182.573 84.9682 182.596 85.0595 182.596 85.1507ZM180.999 85.1507C180.999 85.1051 180.976 85.0823 180.931 85.0823C180.406 85.1507 179.904 86.1317 178.695 87.7058C180.36 86.2686 180.999 85.4017 180.999 85.1507Z" fill="#C7B199"/>
<path d="M191.744 89.8503C193.204 87.934 194.709 86.2915 195.85 86.2915C196.375 86.2915 196.808 86.6109 197.15 87.3409C198.291 89.9872 199.683 91.0138 201.279 91.0138C203.355 91.0138 205.796 89.2572 208.602 87.2268C208.717 87.09 208.831 87.0671 208.945 87.0671C209.196 87.0671 209.447 87.3181 209.447 87.569C209.447 87.7059 209.378 87.82 209.218 87.9112C207.12 89.5538 203.994 91.9263 201.12 91.9263C199.34 91.9263 197.675 91.0138 196.466 88.3447C196.397 88.1165 196.261 88.0025 196.101 88.0025C194.755 88.0025 190.922 93.3864 190.877 93.9339C190.717 94.2761 190.215 94.4586 189.805 94.4586C189.439 94.4586 189.12 94.2989 189.12 93.9567V93.8426L191.652 83.6908C191.789 83.1661 192.177 82.938 192.565 82.938C193.044 82.938 193.5 83.2802 193.5 83.8733V83.9189L191.744 89.8503Z" fill="#C7B199"/>
<path d="M199.5 76.4361C202.557 76.4361 207.028 76.2536 212.869 75.7745C216.268 67.8128 219.827 61.7217 221.469 61.7217H221.515C222.017 61.9042 222.222 62.3604 222.222 62.9764C222.222 65.9649 217.089 73.0826 215.218 75.6604C217.522 75.5008 233.058 74.1092 235.682 74.1092C235.864 74.1092 236.001 74.1092 236.047 74.132C236.161 74.2917 236.206 74.4285 236.206 74.5426C236.206 75.4779 234.039 76.1851 234.039 76.1851C233.925 76.2308 233.834 76.2536 233.72 76.2536C233.355 76.2536 233.058 75.9342 233.058 75.5692C233.058 75.4551 233.081 75.3639 233.127 75.2498C233.127 75.2498 220.876 75.7745 214.808 76.2764C212.686 79.2421 205.979 94.9603 205.979 102.26C205.979 104.405 206.572 105.842 208.055 105.979C208.374 106.002 208.511 106.207 208.511 106.435C208.511 106.732 208.283 107.028 207.987 107.028C207.941 107.028 207.872 107.028 207.827 107.006C206.298 106.344 205.682 104.382 205.682 101.644C205.682 95.4165 208.922 85.0822 212.549 76.4589C208.306 76.4817 203.127 76.6642 199.295 76.6642C196.306 76.6642 194.162 76.5273 194.002 76.1395C193.979 76.0939 193.957 76.0255 193.957 75.9798C193.957 75.6376 194.527 75.5008 194.869 75.5008H195.029C195.417 75.5008 196.033 75.6604 196.033 76.2536C196.854 76.4133 198.04 76.4361 199.5 76.4361ZM220.83 63.8889C220.99 63.4098 221.058 63.1361 221.058 63.022C221.058 62.9992 221.036 62.9764 221.036 62.9764C220.648 62.9764 215.994 72.4666 215.903 72.7176C217.226 71.0978 220.169 65.714 220.83 63.8889Z" fill="#C7B199"/>
<path d="M10.7448 65.6226C10.7676 66.8317 11.7714 67.8126 12.9805 67.8126H13.4139V68.1548H5.77153V67.8126H6.20498C7.43689 67.8126 8.41785 66.8317 8.44066 65.6226V44.6118L4.69932 44.8399C2.60052 44.954 1.27737 45.6156 1.1633 47.144C1.04924 48.5584 1.87051 49.6535 3.69555 49.7219V49.9272C1.52831 50.4975 -0.114228 49.0375 -0.0457888 47.144C0.0226503 45.5015 1.25455 44.1783 4.47119 43.8133C6.45593 43.608 10.0604 43.608 13.3911 42.9692L13.4595 43.3114C11.3607 43.6536 10.722 44.7258 10.6992 46.4596L10.7448 65.6226Z" fill="white"/>
<path d="M43.3679 43.6995V44.0417H42.7291C41.5657 44.0417 40.6075 44.977 40.5619 46.1405V64.2084C40.5619 66.4669 40.8813 68.6798 40.8813 68.6798H40.5619L21.4902 48.3306V65.7597C21.5358 66.9232 22.4711 67.8585 23.6574 67.8585H24.2962V68.2007H17.0645V67.8585H17.7032C18.8895 67.8585 19.8476 66.9232 19.8705 65.7369V47.5549C19.8705 45.1595 19.5511 43.1748 19.5511 43.1748H19.8933L38.9422 63.524V46.1633C38.9193 44.9998 37.9612 44.0417 36.7749 44.0417H36.1361V43.6995H43.3679Z" fill="white"/>
<path d="M61.093 44.087V44.6801V47.0071H60.7508V46.4824C60.7508 45.547 59.998 44.7714 59.0626 44.7486H51.6712V55.562H57.5798C58.5151 55.5391 59.2679 54.7863 59.2679 53.8282V53.3035H59.6101V58.8698H59.2679V58.3451C59.2679 57.4098 58.5379 56.657 57.6026 56.6114H51.6484V65.6225C51.6712 66.8316 52.675 67.8126 53.8841 67.8126H54.3175V68.1548H46.6523V67.8126H47.0858C48.3177 67.8126 49.2987 66.8316 49.3215 65.6225V46.0261C49.3215 44.9083 48.2493 44.0186 47.0858 44.0186H46.6523V43.6764H56.8726C58.3782 43.6535 60.3858 43.3114 61.0474 43.0376L61.093 44.087Z" fill="white"/>
<path d="M82.1498 62.5201L80.1194 68.1777H65.6104V67.8355H66.0438C67.2757 67.8355 68.2567 66.8546 68.2795 65.6455V46.2544C68.2567 45.0453 67.2529 44.0644 66.0438 44.0644H65.6104V43.7222H73.2755V44.0644H72.8421C71.6102 44.0644 70.6292 45.0453 70.6064 46.2544V67.1283H75.6253C79.3438 67.1283 80.7582 65.212 81.8304 62.5429L82.1498 62.5201Z" fill="white"/>
<path d="M108.362 43.6996V44.0418H107.792C106.811 44.0418 106.012 44.7262 105.944 45.6843V59.5318C105.944 65.0069 102.18 68.6798 96.5219 68.6798C90.7046 68.6798 86.8264 65.0526 86.8264 59.6003V45.7756C86.8036 44.7718 85.9823 44.0418 84.9785 44.0418H84.4082V43.6996H91.5259V44.0418H90.9555C89.9518 44.0418 89.1533 44.749 89.1077 45.7299V59.0756C89.1077 64.1629 92.0734 67.562 96.5447 67.562C101.221 67.562 104.324 64.3454 104.347 59.509V45.7071C104.301 44.7262 103.503 44.019 102.499 44.019H101.929V43.6768L108.362 43.6996Z" fill="white"/>
<path d="M128.757 62.5206L126.726 68.1782H112.217V67.836H112.651C113.883 67.836 114.864 66.855 114.886 65.6459V46.0495C114.886 44.9317 113.814 44.042 112.651 44.042H112.217V43.6998H122.438C123.943 43.677 125.951 43.3348 126.612 43.061V44.0876V44.6808V47.464H126.27V46.848C126.27 45.7302 125.403 44.8405 124.308 44.772H117.168V55.5854H123.076C124.012 55.5626 124.764 54.8097 124.764 53.8516V53.3269H125.107V58.8705H124.764V58.3458C124.764 57.4104 124.034 56.6576 123.099 56.612H117.145V67.106H122.164C125.882 67.106 127.297 65.1897 128.369 62.5206H128.757Z" fill="white"/>
<path d="M158.163 43.6995V44.0417H157.524C156.361 44.0417 155.402 44.977 155.357 46.1405V64.2084C155.357 66.4669 155.676 68.6798 155.676 68.6798H155.357L136.285 48.3306V65.7597C136.331 66.9232 137.266 67.8585 138.452 67.8585H139.091V68.2007H131.859V67.8585H132.498C133.684 67.8585 134.643 66.9232 134.665 65.7369V47.5549C134.665 45.1595 134.346 43.1748 134.346 43.1748H134.688L153.737 63.524V46.1633C153.714 44.9998 152.756 44.0417 151.57 44.0417H150.931V43.6995H158.163Z" fill="white"/>
<path d="M183.873 57.9801L183.44 63.4781C181.592 66.4666 178.467 68.6794 173.607 68.6794C166.285 68.6338 161.106 63.6377 161.106 55.9041C161.106 48.3074 166.102 43.1973 173.813 43.1973C177.235 43.1973 180.041 44.201 182.094 45.5698L182.801 50.5202H182.505C181.432 46.4367 178.01 44.2695 173.813 44.2695C167.653 44.2695 163.752 48.9233 163.752 55.8813C163.752 62.9077 167.745 67.4931 173.63 67.63C178.604 67.6072 182.801 65.1434 183.6 57.9801H183.873Z" fill="white"/>
<path d="M204.245 62.5206L202.215 68.1782H187.706V67.836H188.139C189.371 67.836 190.352 66.855 190.375 65.6459V46.0495C190.375 44.9317 189.302 44.042 188.139 44.042H187.706V43.6998H197.926C199.431 43.677 201.439 43.3348 202.101 43.061V44.0876V44.6808V47.464H201.758V46.848C201.758 45.7302 200.892 44.8405 199.796 44.772H192.656V55.5854H198.565C199.5 55.5626 200.253 54.8097 200.253 53.8516V53.3269H200.595V58.8705H200.253V58.3458C200.253 57.4104 199.523 56.6576 198.587 56.612H192.633V67.106H197.652C201.371 67.106 202.785 65.1897 203.857 62.5206H204.245Z" fill="white"/>
<path d="M231.803 68.178H224.138V67.8358H224.571C225.78 67.8358 226.784 66.8548 226.807 65.6457V56.5889H212.48V65.6457C212.503 66.8548 213.507 67.8358 214.716 67.8358H215.15V68.178H207.484V67.8358H207.918C209.15 67.8358 210.131 66.8776 210.154 65.6457V46.2318C210.131 45.0227 209.127 44.0418 207.918 44.0418H207.484V43.6996H215.15V44.0418H214.716C213.507 44.0418 212.503 45.0227 212.48 46.209V55.5395H226.807V46.1862C226.761 44.9771 225.78 44.019 224.571 44.019H224.138V43.6768H231.803V44.019H231.37C230.138 44.019 229.157 44.9999 229.134 46.209V65.6229C229.157 66.832 230.161 67.813 231.37 67.813H231.803V68.178Z" fill="white"/>
<path d="M240.746 62.5206L238.716 68.1782H224.207V67.836H224.64C225.872 67.836 226.853 66.855 226.876 65.6459V46.0495C226.876 44.9317 225.803 44.042 224.64 44.042H224.207V43.6998H234.427C235.932 43.677 237.94 43.3348 238.602 43.061V44.0876V44.6808V47.464H238.259V46.848C238.259 45.7302 237.392 44.8405 236.297 44.772H229.157V55.5854H235.066C236.001 55.5626 236.754 54.8097 236.754 53.8516V53.3269H237.096V58.8705H236.754V58.3458C236.754 57.4104 236.024 56.6576 235.088 56.612H229.134V67.106H234.153C237.872 67.106 239.286 65.1897 240.358 62.5206H240.746Z" fill="white"/>
<path d="M253.476 43.6992C257.719 43.6992 260.32 46.2087 260.32 50.2694C260.32 53.6457 257.742 56.9308 254.366 56.9308C255.118 57.273 256.191 58.4364 256.875 59.3946C256.875 59.3946 259.886 63.7063 261.255 65.1891C262.67 66.7176 263.947 67.8126 266.023 67.8354V68.1776H264.107C260.844 68.1776 259.111 66.421 257.993 65.1207C257.605 64.6416 253.658 58.9155 253.385 58.5733C252.472 57.4327 251.445 56.2236 250.168 56.2236V55.9042C250.168 55.9042 250.966 55.927 252.016 55.8814C253.841 55.8358 256.487 55.4023 257.468 52.2541C257.628 51.775 257.719 50.931 257.696 50.1553C257.605 46.9843 255.962 44.9539 253.362 44.8171C251.582 44.7258 249.461 44.8171 249.005 44.7942V65.6454C249.027 66.8545 250.031 67.8354 251.24 67.8354H251.674V68.1776H244.031V67.8354H244.465C245.674 67.8354 246.678 66.8545 246.7 65.6454V46.2315C246.678 45.0224 245.674 44.0414 244.465 44.0414H244.031V43.6992H253.476Z" fill="white"/>
</g>
<defs>
<clipPath id="clip0_212_259">
<rect width="266" height="113.335" fill="white" transform="translate(0 0.46875)"/>
</clipPath>
</defs>
</svg>
