<svg width="154" height="45" viewBox="0 0 154 45" fill="none" xmlns="http://www.w3.org/2000/svg">
<g clip-path="url(#clip0_270_35)">
<path d="M46.5165 29.8363C44.9448 29.8363 44.1655 28.7665 44.1655 26.6136C44.1655 25.7948 44.3504 24.7514 44.7202 23.4967C45.0901 22.2419 45.5259 20.9344 46.0542 19.574C46.5825 18.2136 47.1504 16.8268 47.7712 15.4268C48.3919 14.0136 48.9863 12.7589 49.5542 11.6627C50.1221 10.5665 50.5844 9.64194 50.941 8.88911C51.2976 8.14948 51.5089 7.75326 51.5618 7.70043L55.0221 8.7042C54.3089 10.091 53.6882 11.3325 53.1731 12.4287C52.658 13.525 52.1033 14.7797 51.4825 16.1533C50.8618 17.5401 50.307 18.9136 49.7919 20.2608C49.2768 21.6212 48.8542 22.9155 48.524 24.1438C48.1938 25.3721 48.0221 26.3759 48.0221 27.1419C48.0221 27.657 48.2731 27.908 48.7882 27.908C49.7655 27.908 50.7825 27.4589 51.8655 26.5608C52.9353 25.6627 54.0976 24.5665 55.3259 23.2589C56.5542 21.9514 57.8485 20.5117 59.2089 18.9533C60.5693 17.3948 62.0485 15.9551 63.6731 14.6476C65.2976 13.3401 67.0146 12.2438 68.8636 11.3457C70.7127 10.4476 72.707 9.99854 74.8599 9.99854C78.3995 9.99854 81.9523 10.2495 85.5448 10.7646C89.1372 11.2797 92.7297 11.8344 96.3485 12.4155C99.9674 13.0099 103.56 13.5514 107.152 14.0665C110.745 14.5816 114.298 14.8325 117.837 14.8325C119.369 14.8325 120.981 14.7136 122.645 14.4891C124.309 14.2646 125.92 13.8551 127.492 13.2608C129.05 12.6665 130.516 11.9004 131.877 10.9495C133.237 9.99854 134.373 8.80986 135.298 7.37024L135.918 7.75326C135.099 9.19288 133.99 10.4608 132.616 11.557C131.23 12.6533 129.711 13.5778 128.047 14.3306C126.383 15.0702 124.666 15.6382 122.896 16.0212C121.126 16.4042 119.422 16.6023 117.784 16.6023C114.298 16.6023 110.745 16.391 107.139 15.9551C103.52 15.5193 99.9146 15.0438 96.2957 14.5287C92.6768 14.0136 89.058 13.5382 85.4127 13.1023C81.7674 12.6665 78.1618 12.4551 74.5693 12.4551C72.258 12.4551 70.1448 12.8778 68.2297 13.7231C66.3014 14.5684 64.5448 15.6514 62.9202 16.9457C61.2957 18.2401 59.8033 19.6533 58.4165 21.1325C57.0297 22.625 55.6825 24.0117 54.375 25.3193C53.0674 26.6268 51.7863 27.6967 50.5316 28.5419C49.2504 29.4136 47.9165 29.8363 46.5165 29.8363ZM57.7033 2.15326C57.7033 2.77401 57.4787 3.2759 57.0561 3.68533C56.6202 4.09477 56.1184 4.30609 55.5504 4.30609C54.9297 4.30609 54.4278 4.10797 54.0184 3.68533C53.6089 3.2759 53.3976 2.7608 53.3976 2.15326C53.3976 1.58533 53.5957 1.09665 54.0184 0.647597C54.4278 0.211748 54.9429 0.000427246 55.5504 0.000427246C56.1184 0.000427246 56.607 0.224956 57.0561 0.647597C57.4787 1.09665 57.7033 1.58533 57.7033 2.15326Z" fill="#F5D2D9"/>
<path d="M6.22102 37.7208C6.23423 38.4208 6.81536 38.9888 7.51536 38.9888H7.7663V39.1869H3.34177V38.9888H3.59272C4.30593 38.9888 4.87385 38.4208 4.88706 37.7208V25.5567L2.72102 25.6888C1.50593 25.7548 0.739888 26.1378 0.67385 27.0227C0.607813 27.8416 1.08328 28.4756 2.13989 28.5152V28.634C0.885171 28.9642 -0.0657722 28.119 -0.0261495 27.0227C0.0134731 26.0718 0.726681 25.3057 2.58894 25.0944C3.738 24.9756 5.82479 24.9756 7.7531 24.6057L7.79272 24.8039C6.57762 25.002 6.20781 25.6227 6.1946 26.6265L6.22102 37.7208Z" fill="#A595E1"/>
<path d="M25.1082 25.0284V25.2266H24.7384C24.0648 25.2266 23.5101 25.7681 23.4837 26.4417V36.902C23.4837 38.2096 23.6686 39.4907 23.6686 39.4907H23.4837L12.4421 27.7096V37.8001C12.4686 38.4737 13.0101 39.0152 13.6969 39.0152H14.0667V39.2133H9.87988V39.0152H10.2497C10.9365 39.0152 11.4912 38.4737 11.5044 37.7869V27.2605C11.5044 25.8737 11.3195 24.7247 11.3195 24.7247H11.5176L22.5459 36.5058V26.4549C22.5327 25.7813 21.978 25.2266 21.2912 25.2266H20.9214V25.0284H25.1082Z" fill="#A595E1"/>
<path d="M35.3701 25.2529V25.5963V26.9435H35.172V26.6397C35.172 26.0982 34.7362 25.6491 34.1947 25.6359H29.9154V31.8963H33.3362C33.8777 31.8831 34.3135 31.4472 34.3135 30.8925V30.5888H34.5117V33.8114H34.3135V33.5076C34.3135 32.9661 33.8909 32.5303 33.3494 32.5038H29.9022V37.7208C29.9154 38.4208 30.4966 38.9888 31.1966 38.9888H31.4475V39.1869H27.0098V38.9888H27.2607C27.9739 38.9888 28.5418 38.4208 28.555 37.7208V26.3755C28.555 25.7284 27.9343 25.2133 27.2607 25.2133H27.0098V25.0152H32.9267C33.7984 25.002 34.9607 24.8038 35.3437 24.6454L35.3701 25.2529Z" fill="#A595E1"/>
<path d="M47.5608 35.9247L46.3854 39.2001H37.9854V39.002H38.2363C38.9495 39.002 39.5174 38.4341 39.5306 37.7341V26.5077C39.5174 25.8077 38.9363 25.2398 38.2363 25.2398H37.9854V25.0417H42.4231V25.2398H42.1721C41.4589 25.2398 40.891 25.8077 40.8778 26.5077V38.5926H43.7835C45.9363 38.5926 46.7552 37.4832 47.3759 35.9379L47.5608 35.9247Z" fill="#A595E1"/>
<path d="M62.7361 25.0285V25.2266H62.4059C61.838 25.2266 61.3757 25.6228 61.3361 26.1776V34.1945C61.3361 37.3643 59.1568 39.4908 55.8814 39.4908C52.5134 39.4908 50.2682 37.3908 50.2682 34.2342V26.2304C50.255 25.6493 49.7795 25.2266 49.1984 25.2266H48.8682V25.0285H52.9889V25.2266H52.6587C52.0776 25.2266 51.6153 25.636 51.5889 26.204V33.9304C51.5889 36.8757 53.3059 38.8436 55.8946 38.8436C58.6021 38.8436 60.3984 36.9813 60.4116 34.1813V26.1908C60.3851 25.6228 59.9229 25.2134 59.3417 25.2134H59.0116V25.0153L62.7361 25.0285Z" fill="#A595E1"/>
<path d="M74.5437 35.9248L73.3683 39.2003H64.9683V39.0021H65.2192C65.9324 39.0021 66.5003 38.4342 66.5135 37.7342V26.3889C66.5135 25.7418 65.8928 25.2267 65.2192 25.2267H64.9683V25.0286H70.8852C71.7569 25.0154 72.9192 24.8172 73.3022 24.6588V25.2531V25.5965V27.2078H73.1041V26.8512C73.1041 26.204 72.6022 25.6889 71.9683 25.6493H67.8343V31.9097H71.2551C71.7966 31.8965 72.2324 31.4606 72.2324 30.9059V30.6021H72.4305V33.8116H72.2324V33.5078C72.2324 32.9663 71.8098 32.5305 71.2683 32.504H67.8211V38.5795H70.7268C72.8796 38.5795 73.6985 37.4701 74.3192 35.9248H74.5437Z" fill="#A595E1"/>
<path d="M91.5686 25.0284V25.2266H91.1988C90.5252 25.2266 89.9705 25.7681 89.9441 26.4417V36.902C89.9441 38.2096 90.129 39.4907 90.129 39.4907H89.9441L78.9026 27.7096V37.8001C78.929 38.4737 79.4705 39.0152 80.1573 39.0152H80.5271V39.2133H76.3403V39.0152H76.7101C77.3969 39.0152 77.9517 38.4737 77.9649 37.7869V27.2605C77.9649 25.8737 77.78 24.7247 77.78 24.7247H77.9781L89.0064 36.5058V26.4549C88.9932 25.7813 88.4384 25.2266 87.7517 25.2266H87.3818V25.0284H91.5686Z" fill="#A595E1"/>
<path d="M106.454 33.2963L106.203 36.4794C105.133 38.2096 103.323 39.4907 100.51 39.4907C96.2706 39.4643 93.2725 36.5718 93.2725 32.0945C93.2725 27.6963 96.1649 24.7379 100.629 24.7379C102.61 24.7379 104.235 25.319 105.423 26.1114L105.833 28.9775H105.661C105.04 26.6133 103.059 25.3586 100.629 25.3586C97.063 25.3586 94.8045 28.0529 94.8045 32.0812C94.8045 36.1492 97.1159 38.8039 100.523 38.8831C103.403 38.8699 105.833 37.4435 106.295 33.2963H106.454Z" fill="#A595E1"/>
<path d="M118.248 35.9248L117.072 39.2003H108.672V39.0021H108.923C109.637 39.0021 110.204 38.4342 110.218 37.7342V26.3889C110.218 25.7418 109.597 25.2267 108.923 25.2267H108.672V25.0286H114.589C115.461 25.0154 116.623 24.8172 117.006 24.6588V25.2531V25.5965V27.2078H116.808V26.8512C116.808 26.204 116.306 25.6889 115.672 25.6493H111.538V31.9097H114.959C115.501 31.8965 115.937 31.4606 115.937 30.9059V30.6021H116.135V33.8116H115.937V33.5078C115.937 32.9663 115.514 32.5305 114.972 32.504H111.525V38.5795H114.431C116.584 38.5795 117.403 37.4701 118.023 35.9248H118.248Z" fill="#A595E1"/>
<path d="M134.202 39.2002H129.765V39.0021H130.016C130.716 39.0021 131.297 38.4342 131.31 37.7342V32.4908H123.016V37.7342C123.029 38.4342 123.61 39.0021 124.31 39.0021H124.561V39.2002H120.123V39.0021H120.374C121.087 39.0021 121.655 38.4474 121.668 37.7342V26.4945C121.655 25.7945 121.074 25.2266 120.374 25.2266H120.123V25.0285H124.561V25.2266H124.31C123.61 25.2266 123.029 25.7945 123.016 26.4813V31.8832H131.31V26.4681C131.283 25.7681 130.716 25.2134 130.016 25.2134H129.765V25.0153H134.202V25.2134H133.951C133.238 25.2134 132.67 25.7813 132.657 26.4813V37.721C132.67 38.4209 133.251 38.9889 133.951 38.9889H134.202V39.2002Z" fill="#A595E1"/>
<path d="M139.38 35.9248L138.204 39.2003H129.804V39.0021H130.055C130.768 39.0021 131.336 38.4342 131.349 37.7342V26.3889C131.349 25.7418 130.729 25.2267 130.055 25.2267H129.804V25.0286H135.721C136.593 25.0154 137.755 24.8172 138.138 24.6588V25.2531V25.5965V27.2078H137.94V26.8512C137.94 26.204 137.438 25.6889 136.804 25.6493H132.67V31.9097H136.091C136.633 31.8965 137.068 31.4606 137.068 30.9059V30.6021H137.266V33.8116H137.068V33.5078C137.068 32.9663 136.646 32.5305 136.104 32.504H132.657V38.5795H135.563C137.716 38.5795 138.534 37.4701 139.155 35.9248H139.38Z" fill="#A595E1"/>
<path d="M146.75 25.0285C149.206 25.0285 150.712 26.4813 150.712 28.8322C150.712 30.787 149.219 32.6888 147.265 32.6888C147.701 32.887 148.321 33.5605 148.718 34.1153C148.718 34.1153 150.461 36.6115 151.253 37.47C152.072 38.3549 152.812 38.9888 154.014 39.0021V39.2002H152.904C151.016 39.2002 150.012 38.1832 149.365 37.4304C149.14 37.153 146.855 33.8379 146.697 33.6398C146.169 32.9794 145.574 32.2794 144.835 32.2794V32.0945C144.835 32.0945 145.297 32.1077 145.904 32.0813C146.961 32.0549 148.493 31.8039 149.061 29.9813C149.153 29.7039 149.206 29.2153 149.193 28.7662C149.14 26.9304 148.189 25.7549 146.684 25.6756C145.653 25.6228 144.425 25.6756 144.161 25.6624V37.7341C144.174 38.4341 144.755 39.0021 145.455 39.0021H145.706V39.2002H141.282V39.0021H141.533C142.233 39.0021 142.814 38.4341 142.827 37.7341V26.4945C142.814 25.7945 142.233 25.2266 141.533 25.2266H141.282V25.0285H146.75Z" fill="#A595E1"/>
</g>
<defs>
<clipPath id="clip0_270_35">
<rect width="154" height="45" fill="white"/>
</clipPath>
</defs>
</svg>
