<svg width="33" height="32" viewBox="0 0 33 32" fill="none" xmlns="http://www.w3.org/2000/svg">
<path d="M28.3687 10.6667C28.3682 10.1991 28.2447 9.73978 28.0107 9.33492C27.7767 8.93005 27.4403 8.59385 27.0353 8.36003L17.702 3.0267C17.2966 2.79265 16.8368 2.66943 16.3687 2.66943C15.9006 2.66943 15.4407 2.79265 15.0353 3.0267L5.70199 8.36003C5.297 8.59385 4.96063 8.93005 4.7266 9.33492C4.49258 9.73978 4.36913 10.1991 4.36865 10.6667V21.3334C4.36913 21.801 4.49258 22.2603 4.7266 22.6651C4.96063 23.07 5.297 23.4062 5.70199 23.64L15.0353 28.9734C15.4407 29.2074 15.9006 29.3306 16.3687 29.3306C16.8368 29.3306 17.2966 29.2074 17.702 28.9734L27.0353 23.64C27.4403 23.4062 27.7767 23.07 28.0107 22.6651C28.2447 22.2603 28.3682 21.801 28.3687 21.3334V10.6667Z" stroke="white" stroke-opacity="0.79" stroke-width="2.66667" stroke-linecap="round" stroke-linejoin="round"/>
<path d="M4.7688 9.33337L16.3688 16L27.9688 9.33337" stroke="white" stroke-opacity="0.79" stroke-width="2.66667" stroke-linecap="round" stroke-linejoin="round"/>
<path d="M16.3687 29.3333V16" stroke="white" stroke-opacity="0.79" stroke-width="2.66667" stroke-linecap="round" stroke-linejoin="round"/>
</svg>
