<svg width="33" height="32" viewBox="0 0 33 32" fill="none" xmlns="http://www.w3.org/2000/svg">
<path d="M23.0354 2.66675H9.70207C6.02017 2.66675 3.0354 5.65152 3.0354 9.33341V22.6667C3.0354 26.3486 6.02017 29.3334 9.70207 29.3334H23.0354C26.7173 29.3334 29.7021 26.3486 29.7021 22.6667V9.33341C29.7021 5.65152 26.7173 2.66675 23.0354 2.66675Z" stroke="white" stroke-opacity="0.79" stroke-width="2.66667" stroke-linecap="round" stroke-linejoin="round"/>
<path d="M21.7022 15.1602C21.8668 16.2698 21.6773 17.4031 21.1606 18.3988C20.6439 19.3946 19.8264 20.202 18.8244 20.7064C17.8224 21.2107 16.6868 21.3863 15.5793 21.2081C14.4717 21.0298 13.4486 20.5069 12.6554 19.7137C11.8621 18.9205 11.3392 17.8973 11.161 16.7898C10.9828 15.6822 11.1583 14.5467 11.6627 13.5447C12.167 12.5426 12.9745 11.7251 13.9702 11.2085C14.966 10.6918 16.0993 10.5023 17.2089 10.6668C18.3408 10.8347 19.3887 11.3621 20.1978 12.1712C21.007 12.9804 21.5344 14.0283 21.7022 15.1602Z" stroke="white" stroke-opacity="0.79" stroke-width="2.66667" stroke-linecap="round" stroke-linejoin="round"/>
<path d="M23.7019 8.66675H23.7152" stroke="white" stroke-opacity="0.79" stroke-width="2.66667" stroke-linecap="round" stroke-linejoin="round"/>
</svg>
