<svg width="33" height="32" viewBox="0 0 33 32" fill="none" xmlns="http://www.w3.org/2000/svg">
<path d="M21.7021 28V25.3333C21.7021 23.9188 21.1402 22.5623 20.14 21.5621C19.1398 20.5619 17.7832 20 16.3687 20H8.36873C6.95425 20 5.59769 20.5619 4.5975 21.5621C3.5973 22.5623 3.0354 23.9188 3.0354 25.3333V28" stroke="white" stroke-opacity="0.79" stroke-width="2.66667" stroke-linecap="round" stroke-linejoin="round"/>
<path d="M21.7019 4.17078C22.8456 4.46727 23.8584 5.13513 24.5815 6.06953C25.3045 7.00392 25.6968 8.15196 25.6968 9.33344C25.6968 10.5149 25.3045 11.663 24.5815 12.5974C23.8584 13.5318 22.8456 14.1996 21.7019 14.4961" stroke="white" stroke-opacity="0.79" stroke-width="2.66667" stroke-linecap="round" stroke-linejoin="round"/>
<path d="M29.7019 28V25.3333C29.701 24.1516 29.3077 23.0037 28.5837 22.0698C27.8597 21.1358 26.8461 20.4688 25.7019 20.1733" stroke="white" stroke-opacity="0.79" stroke-width="2.66667" stroke-linecap="round" stroke-linejoin="round"/>
<path d="M12.3687 14.6667C15.3143 14.6667 17.7021 12.2789 17.7021 9.33333C17.7021 6.38781 15.3143 4 12.3687 4C9.42321 4 7.0354 6.38781 7.0354 9.33333C7.0354 12.2789 9.42321 14.6667 12.3687 14.6667Z" stroke="white" stroke-opacity="0.79" stroke-width="2.66667" stroke-linecap="round" stroke-linejoin="round"/>
</svg>
