<svg width="33" height="32" viewBox="0 0 33 32" fill="none" xmlns="http://www.w3.org/2000/svg">
<path d="M11.0354 18.6666C15.4537 18.6666 19.0354 15.0849 19.0354 10.6666C19.0354 6.24835 15.4537 2.66663 11.0354 2.66663C6.61712 2.66663 3.0354 6.24835 3.0354 10.6666C3.0354 15.0849 6.61712 18.6666 11.0354 18.6666Z" stroke="white" stroke-opacity="0.79" stroke-width="2.66667" stroke-linecap="round" stroke-linejoin="round"/>
<path d="M24.4884 13.8267C25.7488 14.2966 26.8703 15.0767 27.7494 16.0949C28.6284 17.1131 29.2365 18.3366 29.5174 19.6521C29.7983 20.9676 29.7429 22.3327 29.3564 23.6211C28.97 24.9096 28.2648 26.0798 27.3063 27.0235C26.3477 27.9672 25.1667 28.654 23.8723 29.0203C22.578 29.3866 21.2122 29.4207 19.9013 29.1193C18.5903 28.8179 17.3765 28.1908 16.3721 27.296C15.3677 26.4012 14.6052 25.2676 14.155 24" stroke="white" stroke-opacity="0.79" stroke-width="2.66667" stroke-linecap="round" stroke-linejoin="round"/>
<path d="M9.7019 8H11.0352V13.3333" stroke="white" stroke-opacity="0.79" stroke-width="2.66667" stroke-linecap="round" stroke-linejoin="round"/>
<path d="M22.6484 18.5067L23.5818 19.4534L19.8218 23.2134" stroke="white" stroke-opacity="0.79" stroke-width="2.66667" stroke-linecap="round" stroke-linejoin="round"/>
</svg>
