<svg width="33" height="32" viewBox="0 0 33 32" fill="none" xmlns="http://www.w3.org/2000/svg">
<path d="M16.3687 9.33329C18.2097 9.33329 19.7021 7.84091 19.7021 5.99996C19.7021 4.15901 18.2097 2.66663 16.3687 2.66663C14.5278 2.66663 13.0354 4.15901 13.0354 5.99996C13.0354 7.84091 14.5278 9.33329 16.3687 9.33329Z" stroke="white" stroke-opacity="0.79" stroke-width="2.66667" stroke-linecap="round" stroke-linejoin="round"/>
<path d="M13.9683 8.40002L8.76831 13.6" stroke="white" stroke-opacity="0.79" stroke-width="2.66667" stroke-linecap="round" stroke-linejoin="round"/>
<path d="M6.36873 19.3333C8.20968 19.3333 9.70207 17.8409 9.70207 16C9.70207 14.159 8.20968 12.6666 6.36873 12.6666C4.52778 12.6666 3.0354 14.159 3.0354 16C3.0354 17.8409 4.52778 19.3333 6.36873 19.3333Z" stroke="white" stroke-opacity="0.79" stroke-width="2.66667" stroke-linecap="round" stroke-linejoin="round"/>
<path d="M9.7019 16H23.0352" stroke="white" stroke-opacity="0.79" stroke-width="2.66667" stroke-linecap="round" stroke-linejoin="round"/>
<path d="M26.3687 19.3333C28.2097 19.3333 29.7021 17.8409 29.7021 16C29.7021 14.159 28.2097 12.6666 26.3687 12.6666C24.5278 12.6666 23.0354 14.159 23.0354 16C23.0354 17.8409 24.5278 19.3333 26.3687 19.3333Z" stroke="white" stroke-opacity="0.79" stroke-width="2.66667" stroke-linecap="round" stroke-linejoin="round"/>
<path d="M18.7683 23.6L23.9683 18.4" stroke="white" stroke-opacity="0.79" stroke-width="2.66667" stroke-linecap="round" stroke-linejoin="round"/>
<path d="M16.3687 29.3333C18.2097 29.3333 19.7021 27.8409 19.7021 26C19.7021 24.159 18.2097 22.6666 16.3687 22.6666C14.5278 22.6666 13.0354 24.159 13.0354 26C13.0354 27.8409 14.5278 29.3333 16.3687 29.3333Z" stroke="white" stroke-opacity="0.79" stroke-width="2.66667" stroke-linecap="round" stroke-linejoin="round"/>
</svg>
