<svg width="33" height="32" viewBox="0 0 33 32" fill="none" xmlns="http://www.w3.org/2000/svg">
<path d="M16.3687 24H5.70207C4.99482 24 4.31655 23.719 3.81645 23.219C3.31635 22.7189 3.0354 22.0406 3.0354 21.3333V10.6667C3.0354 9.95942 3.31635 9.28115 3.81645 8.78105C4.31655 8.28095 4.99482 8 5.70207 8H27.0354C27.7426 8 28.4209 8.28095 28.921 8.78105C29.4211 9.28115 29.7021 9.95942 29.7021 10.6667V17.3333" stroke="white" stroke-opacity="0.79" stroke-width="2.66667" stroke-linecap="round" stroke-linejoin="round"/>
<path d="M24.3687 16H24.382" stroke="white" stroke-opacity="0.79" stroke-width="2.66667" stroke-linecap="round" stroke-linejoin="round"/>
<path d="M25.7019 29.3334V21.3334" stroke="white" stroke-opacity="0.79" stroke-width="2.66667" stroke-linecap="round" stroke-linejoin="round"/>
<path d="M29.7019 25.3334L25.7019 21.3334L21.7019 25.3334" stroke="white" stroke-opacity="0.79" stroke-width="2.66667" stroke-linecap="round" stroke-linejoin="round"/>
<path d="M8.36865 16H8.38199" stroke="white" stroke-opacity="0.79" stroke-width="2.66667" stroke-linecap="round" stroke-linejoin="round"/>
<path d="M16.3686 18.6667C17.8413 18.6667 19.0352 17.4728 19.0352 16C19.0352 14.5273 17.8413 13.3334 16.3686 13.3334C14.8958 13.3334 13.7019 14.5273 13.7019 16C13.7019 17.4728 14.8958 18.6667 16.3686 18.6667Z" stroke="white" stroke-opacity="0.79" stroke-width="2.66667" stroke-linecap="round" stroke-linejoin="round"/>
</svg>
