<svg width="33" height="32" viewBox="0 0 33 32" fill="none" xmlns="http://www.w3.org/2000/svg">
<path d="M9.98201 20L3.91534 9.51996C3.65374 9.06779 3.53071 8.54874 3.56153 8.02726C3.59234 7.50578 3.77565 7.00484 4.08868 6.58663L6.23534 3.73329C6.48373 3.4021 6.80582 3.13329 7.17611 2.94815C7.54639 2.76301 7.95469 2.66663 8.36868 2.66663H24.3687C24.7827 2.66663 25.191 2.76301 25.5612 2.94815C25.9315 3.13329 26.2536 3.4021 26.502 3.73329L28.6353 6.58663C28.9504 7.00349 29.1361 7.50375 29.1693 8.02525C29.2025 8.54675 29.0817 9.06651 28.822 9.51996L22.7553 20" stroke="white" stroke-opacity="0.79" stroke-width="2.66667" stroke-linecap="round" stroke-linejoin="round"/>
<path d="M15.0356 15.9999L7.19556 2.93323" stroke="white" stroke-opacity="0.79" stroke-width="2.66667" stroke-linecap="round" stroke-linejoin="round"/>
<path d="M17.7019 15.9999L25.5419 2.93323" stroke="white" stroke-opacity="0.79" stroke-width="2.66667" stroke-linecap="round" stroke-linejoin="round"/>
<path d="M11.0354 9.33337H21.7021" stroke="white" stroke-opacity="0.79" stroke-width="2.66667" stroke-linecap="round" stroke-linejoin="round"/>
<path d="M16.3686 29.3333C20.0505 29.3333 23.0352 26.3486 23.0352 22.6667C23.0352 18.9848 20.0505 16 16.3686 16C12.6867 16 9.7019 18.9848 9.7019 22.6667C9.7019 26.3486 12.6867 29.3333 16.3686 29.3333Z" stroke="white" stroke-opacity="0.79" stroke-width="2.66667" stroke-linecap="round" stroke-linejoin="round"/>
<path d="M16.3686 24V21.3334H15.7019" stroke="white" stroke-opacity="0.79" stroke-width="2.66667" stroke-linecap="round" stroke-linejoin="round"/>
</svg>
