<svg width="33" height="32" viewBox="0 0 33 32" fill="none" xmlns="http://www.w3.org/2000/svg">
<path d="M26.1304 7.41625C25.9279 7.31159 25.7308 7.19687 25.5398 7.0725C24.9843 6.70528 24.475 6.27259 24.0229 5.78375C22.8917 4.48938 22.4692 3.17625 22.3135 2.25688H22.3198C22.1898 1.49375 22.2435 1 22.2517 1H17.0992V20.9237C17.0992 21.1912 17.0992 21.4556 17.0879 21.7169C17.0879 21.7494 17.0848 21.7794 17.0829 21.8144C17.0829 21.8288 17.0829 21.8438 17.0798 21.8587C17.0798 21.8625 17.0798 21.8663 17.0798 21.87C17.0255 22.5849 16.7963 23.2754 16.4125 23.8809C16.0286 24.4864 15.5019 24.9884 14.8785 25.3425C14.2289 25.7121 13.4941 25.906 12.7467 25.905C10.346 25.905 8.40041 23.9475 8.40041 21.53C8.40041 19.1125 10.346 17.155 12.7467 17.155C13.2011 17.1546 13.6527 17.2261 14.0848 17.3669L14.091 12.1206C12.7794 11.9512 11.4469 12.0554 10.1775 12.4268C8.90817 12.7981 7.72956 13.4285 6.71604 14.2781C5.82795 15.0498 5.08134 15.9704 4.50979 16.9988C4.29229 17.3738 3.47166 18.8806 3.37229 21.3263C3.30979 22.7144 3.72666 24.1525 3.92541 24.7469V24.7594C4.05041 25.1094 4.53479 26.3037 5.32416 27.3106C5.96068 28.1183 6.71272 28.8278 7.55604 29.4163V29.4037L7.56854 29.4163C10.0629 31.1112 12.8285 31 12.8285 31C13.3073 30.9806 14.911 31 16.7323 30.1369C18.7523 29.18 19.9023 27.7544 19.9023 27.7544C20.637 26.9025 21.2212 25.9318 21.6298 24.8838C22.096 23.6581 22.2517 22.1881 22.2517 21.6006V11.0306C22.3142 11.0681 23.1467 11.6187 23.1467 11.6187C23.1467 11.6187 24.346 12.3875 26.2173 12.8881C27.5598 13.2444 29.3685 13.3194 29.3685 13.3194V8.20438C28.7348 8.27313 27.4479 8.07313 26.1304 7.41625Z" fill="white" fill-opacity="0.79"/>
</svg>
